<?xml version="1.0" standalone="no"?>
<!DOCTYPE svg PUBLIC "-//W3C//DTD SVG 20010904//EN"
 "http://www.w3.org/TR/2001/REC-SVG-20010904/DTD/svg10.dtd">
<svg version="1.0" xmlns="http://www.w3.org/2000/svg"
 width="600.000000pt" height="600.000000pt" viewBox="0 0 600.000000 600.000000"
 preserveAspectRatio="xMidYMid meet">

<g transform="translate(0.000000,600.000000) scale(0.100000,-0.100000)"
fill="#000000" stroke="none">
<path d="M2785 5989 c-301 -36 -449 -63 -635 -119 -518 -156 -1017 -467 -1263
-787 -325 -423 -493 -983 -448 -1488 57 -624 333 -1142 815 -1528 408 -327
989 -499 1511 -448 139 13 327 50 435 85 l75 24 -60 -6 c-117 -13 -415 -7
-513 11 -210 38 -465 143 -647 265 -160 107 -339 286 -447 447 -151 225 -249
489 -279 755 -15 130 -7 374 16 489 116 590 509 1062 1064 1276 98 38 101 39
101 27 0 -4 -15 -13 -33 -20 -53 -19 -205 -119 -306 -200 -226 -183 -412 -456
-500 -733 -62 -196 -75 -284 -75 -504 0 -170 3 -216 23 -305 125 -583 514
-1023 1069 -1209 269 -90 600 -101 887 -30 96 24 196 58 210 72 7 7 4 8 -8 3
-51 -18 -212 -27 -297 -17 -219 27 -405 112 -558 256 -354 331 -408 865 -127
1260 49 69 169 187 235 232 82 56 213 115 309 140 132 34 324 36 456 4 124
-30 291 -113 384 -191 l74 -62 564 564 564 564 -63 75 c-250 300 -488 503
-828 706 -249 149 -615 285 -916 342 -272 52 -600 73 -789 50z"/>
<path d="M250 4163 c-109 -258 -190 -583 -220 -882 -13 -133 -13 -419 0 -552
60 -591 281 -1139 643 -1592 106 -133 335 -362 466 -466 417 -331 897 -541
1424 -622 170 -27 534 -37 714 -20 783 74 1521 462 2016 1061 l87 105 -551
551 -550 551 -88 -86 c-143 -141 -309 -292 -395 -360 -285 -226 -643 -385
-1001 -445 -547 -92 -1124 25 -1575 321 -546 358 -890 889 -997 1538 -14 85
-18 163 -17 340 0 242 16 381 65 556 11 39 18 73 16 75 -2 3 -19 -31 -37 -73z"/>
</g>
</svg>
