<svg width="100" height="100" viewBox="0 0 1024 1024" fill="none" xmlns="http://www.w3.org/2000/svg"
     xmlns:xlink="http://www.w3.org/1999/xlink" version="1.1">
    <rect width="1024" height="1024" rx="240" fill="#242938"/>
    <g transform="translate(128, 128) scale(1)">
        <svg version="1.1" xmlns="http://www.w3.org/2000/svg" width="781" height="781">
            <path d="M0 0 C1.34473137 -0.01469078 1.34473137 -0.01469078 2.71662903 -0.02967834 C21.9624102 -0.19669496 40.53914954 -0.16960967 59.375 4.23828125 C60.81528564 4.55974121 60.81528564 4.55974121 62.28466797 4.88769531 C104.94544227 14.55231261 142.29415272 36.24719971 173.3125 66.92578125 C174.07324829 67.67263184 174.07324829 67.67263184 174.84936523 68.43457031 C177.11583907 70.71997783 179.12328091 72.84027385 180.85205078 75.57373047 C183.23089337 79.24029061 184.9274811 81.76475142 189.18334961 83.15698242 C192.5918908 83.62760254 195.93715754 83.8469713 199.375 83.98828125 C201.90567513 84.17940549 204.43564703 84.38006055 206.96484375 84.58984375 C208.84792236 84.73921387 208.84792236 84.73921387 210.76904297 84.89160156 C257.05206347 89.34128938 301.25403392 113.44875942 334.375 145.23828125 C334.93719238 145.77324219 335.49938477 146.30820313 336.07861328 146.859375 C344.67250022 155.0761082 352.35318821 163.64291443 359.375 173.23828125 C360.52742187 174.80835938 360.52742187 174.80835938 361.703125 176.41015625 C378.08013211 199.42958583 390.15903123 224.97062632 397.1875 252.36328125 C397.37014404 253.06428955 397.55278809 253.76529785 397.7409668 254.48754883 C398.36033096 257.06084244 398.87928142 259.63798006 399.375 262.23828125 C399.49994843 262.89143311 399.62489685 263.54458496 399.75363159 264.2175293 C402.22745783 277.56365266 402.87477084 290.66108275 402.82104492 304.21826172 C402.81254339 307.47167578 402.84142154 310.72332039 402.87304688 313.9765625 C402.93896331 333.3195259 400.43084551 352.07905381 394.8125 370.61328125 C394.52181641 371.61359375 394.23113281 372.61390625 393.93164062 373.64453125 C393.49948242 375.12566406 393.49948242 375.12566406 393.05859375 376.63671875 C392.78450684 377.58135986 392.51041992 378.52600098 392.22802734 379.49926758 C391.375 382.23828125 391.375 382.23828125 390.36962891 384.7956543 C387.68612247 391.95896488 389.08559004 396.35717817 391.875 403.30078125 C395.10055727 412.04858078 397.56491422 420.6388457 399.3125 429.80078125 C399.51101563 430.84049072 399.70953125 431.8802002 399.9140625 432.95141602 C400.42437993 435.71088512 400.91952441 438.46923922 401.375 441.23828125 C401.55385742 442.27146484 401.73271484 443.30464844 401.91699219 444.36914062 C402.51329606 449.4065733 402.57678805 454.38435154 402.61328125 459.453125 C402.621353 460.54049454 402.62942474 461.62786407 402.63774109 462.7481842 C402.65154389 465.05370513 402.66228297 467.35924616 402.67016602 469.66479492 C402.68157205 471.97507914 402.70183783 474.28533947 402.73168945 476.59545898 C403.50731318 536.77779419 378.47968618 592.19734066 336.8125 635.05078125 C332.80175401 638.96035527 328.54127914 642.50907929 324.1640625 646 C322.38301742 647.4293261 320.62480181 648.88790082 318.8984375 650.3828125 C286.39242484 678.3098048 237.18521671 699.47958183 193.9375 697.98828125 C187.41424698 698.36565952 184.5423234 701.27916381 180.375 705.92578125 C178.59564536 707.98975358 176.84668756 710.07478775 175.11181641 712.17626953 C165.58425351 723.48773934 154.34859169 732.65478571 142.375 741.23828125 C141.7660791 741.68123535 141.1571582 742.12418945 140.52978516 742.58056641 C118.92381114 758.18121838 94.22087025 768.75450101 68.5625 775.61328125 C67.71751953 775.83999512 66.87253906 776.06670898 66.00195312 776.30029297 C63.13748211 777.01965842 60.26847404 777.64535803 57.375 778.23828125 C56.73849518 778.36925201 56.10199036 778.50022278 55.44619751 778.63516235 C42.32042612 781.24632315 29.40226893 781.73593562 16.04321289 781.68432617 C12.70851386 781.67583476 9.3755463 781.70467352 6.04101562 781.73632812 C-13.1872465 781.79990375 -31.95906379 779.41834091 -50.4375 773.98828125 C-51.46609131 773.69236084 -52.49468262 773.39644043 -53.55444336 773.09155273 C-63.24890378 770.21185374 -72.47865117 766.53463917 -81.625 762.23828125 C-82.32415527 761.91214844 -83.02331055 761.58601562 -83.74365234 761.25 C-108.43805046 749.61274316 -130.15764519 733.71881958 -149.5625 714.55078125 C-150.06998779 714.05263916 -150.57747559 713.55449707 -151.1003418 713.04125977 C-153.36987782 710.75238005 -155.39956636 708.57581883 -157.1965332 705.88525391 C-160.25216902 701.19809524 -160.25216902 701.19809524 -164.91625977 698.41333008 C-167.6145334 698.07391303 -170.2181093 697.99178442 -172.9375 697.98828125 C-175.00185968 697.89144172 -177.06569729 697.78292197 -179.12890625 697.6640625 C-180.73209717 697.57632568 -180.73209717 697.57632568 -182.36767578 697.48681641 C-238.12062703 693.23284366 -289.80471002 661.34648467 -326.30224609 620.35449219 C-357.34081319 583.93780456 -378.42525735 534.82437214 -378.86328125 486.6484375 C-378.8730751 485.75463882 -378.88286896 484.86084015 -378.89295959 483.93995667 C-379.15543894 453.77116553 -377.63594081 423.61589288 -365.19140625 395.5546875 C-363.46834678 388.50796841 -367.28247339 380.78281185 -369.4375 374.17578125 C-375.06103164 356.45833684 -378.73251584 338.32431831 -378.828125 319.69140625 C-378.83382507 318.79951599 -378.83952515 317.90762573 -378.84539795 316.9887085 C-378.85479074 315.10625368 -378.86135898 313.22378285 -378.86523438 311.34130859 C-378.87483283 308.53712042 -378.9058665 305.73370098 -378.9375 302.9296875 C-379.20641802 257.39816093 -364.07393739 211.60987578 -336.625 175.23828125 C-336.17946777 174.64015625 -335.73393555 174.04203125 -335.27490234 173.42578125 C-328.60325698 164.51424919 -321.32114336 156.27321302 -313.625 148.23828125 C-312.91601562 147.48804688 -312.20703125 146.7378125 -311.4765625 145.96484375 C-297.97016805 132.01742417 -281.44423118 120.7950684 -264.625 111.23828125 C-264.04878906 110.90231934 -263.47257812 110.56635742 -262.87890625 110.22021484 C-237.72049803 95.59439419 -206.34557617 85.03964286 -177.11328125 83.97265625 C-166.41547239 83.75748753 -166.41547239 83.75748753 -157.69018555 78.2199707 C-155.49656141 75.66171438 -153.5607595 72.99917565 -151.625 70.23828125 C-150.45878643 68.8246148 -149.27380802 67.4260048 -148.0625 66.05078125 C-147.51207031 65.42171875 -146.96164063 64.79265625 -146.39453125 64.14453125 C-110.54825978 25.52868031 -52.40127327 0.47463493 0 0 Z "
                  fill="#F68A1F" transform="translate(378.625,-0.23828125)"/>
            <path d="M0 0 C2.15445189 0.00529882 4.30868972 0.00006365 6.46313477 -0.00634766 C20.30586273 -0.01626571 33.73486556 0.71034017 47.30883789 3.63037109 C48.4000293 3.85595703 49.4912207 4.08154297 50.61547852 4.31396484 C94.07296836 13.35312273 131.05985727 34.91512742 163.12133789 65.13037109 C163.85352539 65.82001953 164.58571289 66.50966797 165.34008789 67.22021484 C170.75177092 72.47083588 175.44336129 78.22628043 180.12133789 84.13037109 C181.2950293 85.56123047 181.2950293 85.56123047 182.49243164 87.02099609 C192.69542965 99.75433761 200.74681666 113.85480215 207.87133789 128.50537109 C208.30188477 129.37871094 208.73243164 130.25205078 209.17602539 131.15185547 C211.62176842 136.3389363 213.43510801 140.38251081 211.43823242 146.07910156 C210.47568612 148.39266343 209.41533084 150.63212307 208.30883789 152.88037109 C207.90721436 153.70947998 207.50559082 154.53858887 207.09179688 155.39282227 C191.26372996 187.38533662 167.35632422 217.44915443 138.12133789 238.13037109 C137.44135742 238.6116748 136.76137695 239.09297852 136.06079102 239.58886719 C115.74706515 253.81121299 85.91195421 274.13037109 60.12133789 274.13037109 C60.26571289 275.12810547 60.41008789 276.12583984 60.55883789 277.15380859 C67.80263099 331.3598084 55.1127888 387.9370847 24.12133789 433.13037109 C23.4989624 434.04351074 23.4989624 434.04351074 22.86401367 434.97509766 C20.03734246 439.09393037 17.11298426 443.13016295 14.12133789 447.13037109 C13.48583008 447.99275391 12.85032227 448.85513672 12.19555664 449.74365234 C-0.18285955 465.69419666 -15.40367554 479.55057405 -31.87866211 491.13037109 C-32.7789917 491.78175049 -32.7789917 491.78175049 -33.69750977 492.44628906 C-55.31054901 508.06202415 -80.0180632 518.64265372 -105.69116211 525.50537109 C-106.53614258 525.73208496 -107.38112305 525.95879883 -108.25170898 526.19238281 C-111.11618 526.91174827 -113.98518807 527.53744787 -116.87866211 528.13037109 C-117.51516693 528.26134186 -118.15167175 528.39231262 -118.8074646 528.5272522 C-131.93323599 531.13841299 -144.85139318 531.62802546 -158.21044922 531.57641602 C-161.54514825 531.5679246 -164.87811581 531.59676336 -168.21264648 531.62841797 C-187.44090861 531.69199359 -206.2127259 529.31043075 -224.69116211 523.88037109 C-225.71975342 523.58445068 -226.74834473 523.28853027 -227.80810547 522.98364258 C-237.50256589 520.10394359 -246.73231328 516.42672901 -255.87866211 512.13037109 C-256.57781738 511.80423828 -257.27697266 511.47810547 -257.99731445 511.14208984 C-287.7662382 497.11345833 -317.48717248 476.09788805 -336.87866211 449.13037109 C-337.87517139 447.78726495 -338.87266774 446.44489091 -339.87084961 445.10302734 C-374.40760283 398.36372681 -388.68772962 345.82557706 -386.37866211 287.94287109 C-386.3309668 286.70472656 -386.28327148 285.46658203 -386.23413086 284.19091797 C-386.11751848 281.17065746 -385.99899304 278.15048534 -385.87866211 275.13037109 C-386.55517822 274.92581299 -387.23169434 274.72125488 -387.92871094 274.51049805 C-412.46919307 266.98161745 -435.95534129 257.24134084 -456.87866211 242.13037109 C-457.45181152 241.71722656 -458.02496094 241.30408203 -458.61547852 240.87841797 C-475.80942952 228.33215248 -491.88847307 214.04212664 -504.87866211 197.13037109 C-505.52617432 196.28949951 -505.52617432 196.28949951 -506.18676758 195.43164062 C-516.59110676 181.83619421 -525.08416726 167.35070226 -532.87866211 152.13037109 C-533.34788086 151.22931641 -533.81709961 150.32826172 -534.30053711 149.39990234 C-534.67694336 148.63033203 -535.05334961 147.86076172 -535.44116211 147.06787109 C-535.75182617 146.43751953 -536.06249023 145.80716797 -536.38256836 145.15771484 C-537.99916455 138.55130996 -533.73600185 132.01530658 -530.94116211 126.25537109 C-530.44825684 125.23467529 -529.95535156 124.21397949 -529.44750977 123.16235352 C-522.92165154 109.87779443 -515.12222837 97.69868612 -505.87866211 86.13037109 C-505.24782715 85.33179688 -504.61699219 84.53322266 -503.96704102 83.71044922 C-498.46183861 76.8438498 -492.60656471 70.47056256 -486.37866211 64.25537109 C-485.90133636 63.77892151 -485.42401062 63.30247192 -484.93222046 62.81158447 C-476.49161839 54.42159624 -467.73084383 46.83048825 -457.87866211 40.13037109 C-457.13583984 39.6236084 -456.39301758 39.1168457 -455.62768555 38.59472656 C-425.24141219 18.13037109 -425.24141219 18.13037109 -416.87866211 18.13037109 C-416.85288086 19.27892578 -416.82709961 20.42748047 -416.80053711 21.61083984 C-416.48488621 31.34972211 -415.5260169 39.98086335 -411.87866211 49.13037109 C-411.5525293 49.96439453 -411.22639648 50.79841797 -410.89038086 51.65771484 C-405.49087792 63.77223598 -395.32159895 73.88603854 -386.71850586 83.82568359 C-383.45404305 87.60604715 -380.30445301 91.4758257 -377.15600586 95.35302734 C-374.59661939 98.47433743 -371.99262089 101.55478107 -369.37866211 104.63037109 C-365.32847571 109.39943078 -361.33513969 114.209497 -357.38256836 119.06005859 C-354.26523194 122.88256471 -351.13662722 126.69566866 -348.00366211 130.50537109 C-347.40658447 131.23183838 -346.80950684 131.95830566 -346.19433594 132.70678711 C-341.59077632 138.29561962 -336.9120189 143.81509566 -332.18334961 149.29833984 C-329.86097685 152.15210298 -327.86615624 155.03922238 -325.87866211 158.13037109 C-326.48452148 158.53126953 -327.09038086 158.93216797 -327.71459961 159.34521484 C-343.60018512 170.12297363 -355.72118678 183.21962823 -360.87866211 202.13037109 C-364.32514699 222.65722956 -360.53916575 240.95860189 -348.54711914 258.02539062 C-339.17488733 270.47769861 -327.14283737 280.28146325 -312.37866211 285.44287109 C-311.56751953 285.73355469 -310.75637695 286.02423828 -309.9206543 286.32373047 C-307.24503871 287.27447731 -304.56338456 288.20566489 -301.87866211 289.13037109 C-300.46810547 289.61642822 -300.46810547 289.61642822 -299.02905273 290.11230469 C-286.94081661 294.25169566 -274.79009783 298.15213921 -262.53979492 301.78466797 C-258.68741727 302.93325499 -254.87765929 304.09192131 -251.13256836 305.55615234 C-244.98984934 307.92380395 -238.62732834 309.64909962 -232.31616211 311.50537109 C-224.6635354 313.75745473 -217.04386064 316.04753384 -209.48803711 318.61083984 C-201.29725182 321.37157447 -193.01141143 323.73229688 -184.69116211 326.06787109 C-181.59681545 326.94076935 -178.50317843 327.81615261 -175.40991211 328.69287109 C-174.66240189 328.90455429 -173.91489166 329.11623749 -173.14472961 329.33433533 C-168.1119348 330.76494715 -163.10463497 332.26527814 -158.10791016 333.81762695 C-137.86550631 340.10158564 -116.72532128 344.03807339 -96.87866211 334.13037109 C-88.15508289 329.40454745 -80.94365522 323.08072019 -73.53930664 316.57324219 C-71.17420991 314.51829927 -68.74973629 312.54094361 -66.31616211 310.56787109 C-62.2950812 307.30258807 -58.32521049 303.98479266 -54.37866211 300.63037109 C-49.5291216 296.50929317 -44.62705246 292.46045627 -39.69116211 288.44287109 C-35.99772301 285.40604339 -32.35567725 282.31076154 -28.71240234 279.21411133 C-25.31912102 276.3349179 -21.89598425 273.49832872 -18.44116211 270.69287109 C-14.19473829 267.23762958 -10.02569917 263.70339275 -5.87866211 260.13037109 C-0.86902227 255.8141445 4.20027239 251.58622595 9.33227539 247.41552734 C14.65337994 243.05579883 19.88611298 238.59251875 25.12133789 234.13037109 C25.91024414 233.46779297 26.69915039 232.80521484 27.51196289 232.12255859 C40.49988997 221.0679489 48.74295895 207.1060867 50.42993164 190.00146484 C51.00181934 174.76845604 45.52872803 160.91011542 40.43066406 146.7644043 C39.14682647 143.20111462 37.88152129 139.63177416 36.62133789 136.06005859 C36.20883789 134.89603516 35.79633789 133.73201172 35.37133789 132.53271484 C34.53554444 130.1742102 33.70222465 127.81482755 32.87133789 125.45458984 C30.18921879 117.90274825 27.25320544 110.50558599 24.12133789 103.13037109 C23.52662939 101.67739713 22.93510569 100.22311233 22.34790039 98.76708984 C19.35202001 91.36760418 16.23916294 84.0579875 12.80615234 76.85009766 C11.25139473 73.57899365 9.7477356 70.29701265 8.32446289 66.96630859 C0.55198378 48.81692742 -9.31002063 31.8307698 -19.42211914 14.89746094 C-19.98914551 13.94049316 -20.55617188 12.98352539 -21.14038086 11.99755859 C-21.64529053 11.15306152 -22.1502002 10.30856445 -22.67041016 9.43847656 C-23.78612325 7.30714669 -24.42286444 5.48075758 -24.87866211 3.13037109 C-17.93090272 -1.5014685 -8.08128986 -0.02355797 0 0 Z "
                  fill="#F68A1F" transform="translate(552.878662109375,249.86962890625)"/>
            <path d="M0 0 C7.26154864 4.32374469 12.94556684 10.42340975 17.9453125 17.16015625 C20.40626631 20.38586861 23.01449645 23.46467899 25.65625 26.54296875 C26.42702881 27.44208984 26.42702881 27.44208984 27.21337891 28.359375 C30.61023595 32.29469366 34.10498584 36.12224027 37.65625 39.91796875 C40.99725588 43.49463749 44.03164569 47.15564672 46.84375 51.16796875 C51.21822656 57.39664731 56.36117042 62.78924784 61.57421875 68.31005859 C66.77289785 73.85366472 71.60949339 79.72804792 76.51025391 85.53344727 C81.43910022 91.37050232 86.41318881 97.16831488 91.39013672 102.96435547 C93.39817338 105.303508 95.40441651 107.64419442 97.41040039 109.98510742 C98.40280843 111.14305178 99.39548165 112.30076893 100.38842773 113.45825195 C102.99326416 116.49516011 105.59354534 119.53582091 108.1875 122.58203125 C108.72632813 123.21367187 109.26515625 123.8453125 109.8203125 124.49609375 C110.84772929 125.70065137 111.87385478 126.90631208 112.8984375 128.11328125 C116.6950379 132.6239579 116.6950379 132.6239579 120.90625 136.73046875 C124.2383998 136.53848353 124.2383998 136.53848353 126.90625 134.73046875 C127.46901105 130.67140498 127.07953467 129.00258498 124.8515625 125.50390625 C123.92638871 124.35886762 122.9853199 123.22654441 122.03125 122.10546875 C121.5360083 121.50009277 121.0407666 120.8947168 120.53051758 120.27099609 C119.00362166 118.41151139 117.45736006 116.56977675 115.90625 114.73046875 C114.99019116 113.63208906 114.07479342 112.53315756 113.16015625 111.43359375 C111.4774016 109.41371893 109.79059147 107.39746931 108.1015625 105.3828125 C105.23583315 101.92048113 102.55578288 98.3590438 99.90625 94.73046875 C99.04106226 93.57239511 98.1751007 92.4148994 97.30859375 91.2578125 C94.4636903 87.44653273 91.67157242 83.59978887 88.90625 79.73046875 C88.23207031 78.79332031 87.55789063 77.85617187 86.86328125 76.890625 C83.06701463 71.18269918 81.6433572 66.56362087 82.90625 59.73046875 C85.47569364 50.34486211 94.23667637 43.12232255 102.21875 38.23046875 C108.78404198 34.49747628 114.87990962 32.81007991 122.40625 32.35546875 C123.1178125 32.30648437 123.829375 32.2575 124.5625 32.20703125 C130.40785321 33.51249347 134.30001299 39.19483093 137.71875 43.73046875 C138.14470459 44.2937085 138.57065918 44.85694824 139.00952148 45.43725586 C142.71713943 50.38051763 146.21407002 55.4592057 149.703125 60.55859375 C153.29176569 65.72521828 157.10166275 70.72209749 160.90625 75.73046875 C163.05617747 78.560727 165.20111146 81.3946897 167.34375 84.23046875 C167.86428955 84.91343018 168.3848291 85.5963916 168.92114258 86.30004883 C169.65433716 87.27107544 169.65433716 87.27107544 170.40234375 88.26171875 C170.83732178 88.83470703 171.2722998 89.40769531 171.72045898 89.99804688 C172.97950184 91.83748852 173.95405808 93.71749921 174.90625 95.73046875 C176.55625 95.73046875 178.20625 95.73046875 179.90625 95.73046875 C180.78836614 92.82407453 181.21870557 91.35086789 179.82421875 88.58203125 C179.25316406 87.84726562 178.68210937 87.1125 178.09375 86.35546875 C174.95957049 82.1579069 171.97893347 77.91278311 169.09375 73.54296875 C168.23848586 72.25507243 167.38301417 70.96731392 166.52734375 69.6796875 C166.09663574 69.0304834 165.66592773 68.3812793 165.22216797 67.71240234 C163.03845962 64.42347018 160.84689834 61.13978043 158.65625 57.85546875 C157.8294222 56.61458659 157.00259912 55.37370128 156.17578125 54.1328125 C154.780457 52.03953483 153.38183158 49.9486279 151.98046875 47.859375 C151.44035156 47.05371094 150.90023437 46.24804688 150.34375 45.41796875 C149.88871094 44.74121094 149.43367187 44.06445312 148.96484375 43.3671875 C146.31816109 39.27508406 146.11228982 35.50186405 146.90625 30.73046875 C149.84335625 24.9296839 154.81170671 20.62970918 159.90625 16.73046875 C160.875625 15.98796875 161.845 15.24546875 162.84375 14.48046875 C170.01861626 10.38054517 177.90217594 9.7866465 185.96875 11.0546875 C194.63310311 13.51773949 200.77589432 21.41533563 205.09716797 28.92651367 C206.09350081 30.73001768 207.07451599 32.54103324 208.05078125 34.35546875 C210.65253598 39.08792366 213.72776953 43.37381426 216.90625 47.73046875 C218.15846519 49.47031797 219.40703313 51.21272206 220.65405273 52.95629883 C221.52479449 54.17275013 222.39797515 55.38745964 223.27368164 56.6003418 C226.20110457 60.67178925 228.9203463 64.82708104 231.45703125 69.15625 C233.41148521 71.2792822 235.10099697 71.40624353 237.90625 71.73046875 C238.23625 70.74046875 238.56625 69.75046875 238.90625 68.73046875 C237.73867763 66.49979101 236.52187483 64.46093485 235.15625 62.35546875 C231.13221648 55.91733905 227.47993044 49.33659581 223.96875 42.60546875 C223.26057129 41.25509521 223.26057129 41.25509521 222.53808594 39.87744141 C218.40631619 31.92400936 215.84207262 25.8635354 216.90625 16.73046875 C220.20962651 9.72731054 226.83482795 4.65127351 233.90625 1.73046875 C241.08308976 -0.40318631 248.0390798 0.07813365 254.7109375 3.4140625 C261.59016285 7.53914959 265.77702964 12.47483003 269.58203125 19.49609375 C270.84317637 21.62404363 272.16358962 23.00701124 273.90625 24.73046875 C274.62857285 26.40494445 275.3469957 28.08147246 276.02734375 29.7734375 C277.3033309 32.61463556 278.97100067 35.15248542 280.65625 37.765625 C282.13916651 40.09658439 283.47211154 42.50347918 284.8203125 44.9140625 C286.02506345 46.92920348 287.36404433 48.81309432 288.71875 50.73046875 C291.51524758 54.85726952 293.67787312 59.16218715 295.78125 63.66796875 C296.24688354 64.66280273 296.24688354 64.66280273 296.72192383 65.67773438 C298.90625 70.46239006 298.90625 70.46239006 298.90625 72.73046875 C299.56625 72.73046875 300.22625 72.73046875 300.90625 72.73046875 C301.23238281 73.61089844 301.55851562 74.49132812 301.89453125 75.3984375 C302.33152344 76.55988281 302.76851562 77.72132813 303.21875 78.91796875 C303.86263672 80.64080078 303.86263672 80.64080078 304.51953125 82.3984375 C305.76711335 85.39614887 307.16589917 87.9990848 308.90625 90.73046875 C310.44274308 93.47998268 310.90625 94.50461569 310.90625 97.73046875 C311.56625 97.73046875 312.22625 97.73046875 312.90625 97.73046875 C313.41137244 99.33302983 313.91016627 100.93758667 314.40625 102.54296875 C314.82390625 103.88294922 314.82390625 103.88294922 315.25 105.25 C315.90625 107.73046875 315.90625 107.73046875 315.90625 110.73046875 C316.89625 111.06046875 317.88625 111.39046875 318.90625 111.73046875 C319.88585805 114.09885042 320.6771795 116.34824956 321.40625 118.79296875 C323.37399637 125.09730998 323.37399637 125.09730998 325.65625 131.29296875 C326.81259462 134.47291646 327.48758571 137.38115443 327.90625 140.73046875 C328.56625 140.73046875 329.22625 140.73046875 329.90625 140.73046875 C330.41382862 142.14443777 330.91199925 143.56178604 331.40625 144.98046875 C331.82390625 146.16382813 331.82390625 146.16382813 332.25 147.37109375 C332.90625 149.73046875 332.90625 149.73046875 332.90625 153.73046875 C333.56625 153.73046875 334.22625 153.73046875 334.90625 153.73046875 C336.88625 161.65046875 336.88625 161.65046875 338.90625 169.73046875 C339.56625 169.73046875 340.22625 169.73046875 340.90625 169.73046875 C345.62407571 189.72506344 345.62407571 189.72506344 340.90625 197.73046875 C339.02894061 199.85808606 336.96892505 201.72882694 334.84375 203.60546875 C334.27172852 204.12286621 333.69970703 204.64026367 333.11035156 205.17333984 C328.79772518 209.03838424 324.33560234 212.68931873 319.734375 216.20703125 C317.79732211 217.61430883 317.79732211 217.61430883 316.90625 219.73046875 C316.17664063 220.16101563 315.44703125 220.5915625 314.6953125 221.03515625 C311.4824345 222.9880821 309.0117914 225.27212635 306.28125 227.85546875 C292.73539471 240.50305778 292.73539471 240.50305778 286.515625 244.12109375 C283.06797747 246.24748714 280.13748807 248.81905387 277.09375 251.48046875 C276.47209961 252.01905518 275.85044922 252.5576416 275.20996094 253.11254883 C273.43899992 254.64838356 271.67227788 256.18896735 269.90625 257.73046875 C269.13410156 258.39949219 268.36195313 259.06851562 267.56640625 259.7578125 C264.8446155 262.12337706 262.1477243 264.51002609 259.484375 266.94140625 C255.13811127 270.90572559 250.78757399 274.67472034 246.03515625 278.140625 C239.98254584 282.66064782 234.19465112 287.54002663 228.59375 292.60546875 C222.67405807 297.73904465 218.24988001 299.21244021 210.4296875 299.03515625 C203.8299621 298.46444829 197.37790833 297.11021317 190.90625 295.73046875 C190.90625 295.07046875 190.90625 294.41046875 190.90625 293.73046875 C189.875 293.64796875 188.84375 293.56546875 187.78125 293.48046875 C181.30876923 292.68438823 175.13510146 290.59139957 168.90625 288.73046875 C167.81441406 288.41980469 166.72257813 288.10914063 165.59765625 287.7890625 C158.34537339 285.70930731 151.14189988 283.50108698 143.96337891 281.17993164 C134.34186284 278.07061231 124.71493849 275.19028004 114.90625 272.73046875 C114.90625 272.07046875 114.90625 271.41046875 114.90625 270.73046875 C113.65593994 270.54689819 113.65593994 270.54689819 112.38037109 270.35961914 C108.62071753 269.67875988 104.98841607 268.71517249 101.3203125 267.6640625 C100.61852875 267.46571304 99.916745 267.26736359 99.19369507 267.06300354 C96.97201391 266.43433481 94.75162693 265.80122661 92.53125 265.16796875 C91.01701067 264.73863736 89.50268854 264.30959793 87.98828125 263.88085938 C84.29330452 262.83410335 80.59948112 261.78336637 76.90625 260.73046875 C76.90625 260.07046875 76.90625 259.41046875 76.90625 258.73046875 C71.25478777 257.55924016 65.63023793 256.47707587 59.90625 255.73046875 C59.90625 255.07046875 59.90625 254.41046875 59.90625 253.73046875 C59.36097656 253.62089844 58.81570313 253.51132812 58.25390625 253.3984375 C52.65089935 252.22036938 47.3008113 250.64343375 41.90625 248.73046875 C41.90625 248.07046875 41.90625 247.41046875 41.90625 246.73046875 C40.75125 246.70984375 39.59625 246.68921875 38.40625 246.66796875 C31.73701348 245.85205152 27.88318324 240.86347567 23.53125 236.16796875 C21.71616997 233.4453487 20.78294931 230.87197462 19.90625 227.73046875 C19.24625 227.73046875 18.58625 227.73046875 17.90625 227.73046875 C15.64383711 223.20564297 16.2307357 217.61284447 16.90625 212.73046875 C20.95781836 204.13657867 27.67132749 198.99498219 35.90625 194.73046875 C46.9722299 191.95944596 58.00740811 194.40685779 68.90625 196.73046875 C68.90625 197.39046875 68.90625 198.05046875 68.90625 198.73046875 C69.94072266 198.78654297 69.94072266 198.78654297 70.99609375 198.84375 C80.18489633 199.48658804 87.52436308 202.00518567 95.90625 205.73046875 C97.21794891 206.29483429 98.53043459 206.8573752 99.84375 207.41796875 C100.854375 207.85109375 101.865 208.28421875 102.90625 208.73046875 C102.90625 209.39046875 102.90625 210.05046875 102.90625 210.73046875 C104.88625 211.06046875 106.86625 211.39046875 108.90625 211.73046875 C108.90625 210.74046875 108.90625 209.75046875 108.90625 208.73046875 C108.24625 208.73046875 107.58625 208.73046875 106.90625 208.73046875 C105.53412699 207.19851603 104.2347054 205.60125794 102.96875 203.98046875 C99.02875526 199.03628704 94.89997851 194.36668406 90.53735352 189.79199219 C87.11547343 186.14976612 87.11547343 186.14976612 85.9453125 183.8046875 C84.25950535 180.43941082 81.68815738 177.79909667 79.21875 174.98046875 C78.67710205 174.35575684 78.1354541 173.73104492 77.57739258 173.08740234 C76.02441163 171.29816386 74.46615588 169.51366973 72.90625 167.73046875 C72.21273437 166.93382812 71.51921875 166.1371875 70.8046875 165.31640625 C68.62827404 162.82197804 66.44317756 160.33561769 64.24609375 157.859375 C57.88842419 150.66173999 51.85689257 143.20387196 45.90625 135.66796875 C42.49548148 131.38593461 38.87687446 127.33876575 35.19140625 123.29296875 C31.27384163 118.89993903 27.6043596 114.30816345 23.90625 109.73046875 C22.40752558 107.8960925 20.90752702 106.0627565 19.40625 104.23046875 C13.40625 96.89713542 7.40625 89.56380208 1.40625 82.23046875 C0.66375 81.32425781 -0.07875 80.41804688 -0.84375 79.484375 C-2.34885953 77.64218364 -3.84883632 75.79578725 -5.34375 73.9453125 C-9.69356374 68.57601116 -14.17546448 63.38550949 -18.828125 58.27734375 C-22.03045168 54.67748686 -25.06242358 50.94964019 -28.0859375 47.19921875 C-29.67328747 45.24745769 -31.29893712 43.3602581 -32.96875 41.48046875 C-37.38348002 35.76728872 -38.74426815 30.54221179 -38.4921875 23.42578125 C-37.0986629 13.99899716 -28.13871043 7.13211208 -21.34765625 1.20703125 C-15.47105026 -2.92564428 -6.41220565 -2.63127126 0 0 Z "
                  fill="#F05522" transform="translate(216.09375,248.26953125)"/>
            <path d="M0 0 C6.48651851 5.7757904 12.12590386 12.16946547 17.52734375 18.953125 C21.12582939 23.38727792 24.89277716 27.67062762 28.65966797 31.96191406 C29.19350098 32.57260742 29.72733398 33.18330078 30.27734375 33.8125 C30.75421631 34.35519531 31.23108887 34.89789063 31.72241211 35.45703125 C33 37 33 37 35 40 C38.32788153 38.77363535 41.02042933 37.40470541 43.875 35.3125 C49.63876912 31.38353071 55.86709854 28.54715074 62.23974609 25.77099609 C63.73830587 25.11462275 65.22418466 24.42942043 66.70703125 23.73828125 C71.96278252 21.51182914 76.74396859 20.79649078 82.38842773 20.42602539 C92.47689736 19.76193458 97.61236883 18.23879611 105 11 C118.24053069 1.39281359 132.6180079 -1.17720659 148.5625 -1.1875 C149.56474609 -1.19974609 150.56699219 -1.21199219 151.59960938 -1.22460938 C159.81341123 -1.2408315 159.81341123 -1.2408315 163.90234375 0.07421875 C168.15157395 1.34416523 170.47074254 0.80945621 174.33203125 -1.234375 C175.55986328 -1.98460937 175.55986328 -1.98460937 176.8125 -2.75 C193.39780915 -11.86861619 211.59733362 -13.78930427 230.0625 -9.5 C251.76950304 -2.5932263 265.9564811 13.49294549 277.75 32.3125 C278.34852783 33.26108887 278.94705566 34.20967773 279.5637207 35.18701172 C285.16390535 44.13338629 290.44338738 53.24575141 295.57958984 62.46484375 C296.95798017 64.92500277 298.36070706 67.36967182 299.76953125 69.8125 C306.95419716 82.40039326 312.82079712 95.45448751 318.5690918 108.75 C320.05521625 112.12541183 321.60259092 115.46743475 323.1640625 118.80859375 C325.35588089 123.52825966 327.30892855 128.22726984 329.0625 133.125 C330.65299733 137.55995197 332.35719087 141.81108033 334.36328125 146.07421875 C337.44917588 152.7735015 339.78027702 159.7025148 342.125 166.6875 C342.97974211 169.2129327 343.83756552 171.73730339 344.6953125 174.26171875 C345.09548584 175.4417749 345.49565918 176.62183105 345.90795898 177.83764648 C346.76927418 180.3318597 347.66090256 182.80233242 348.60546875 185.265625 C355.52543623 203.79640627 359.63237916 221.08229002 351.7109375 240.09375 C345.31733323 253.63314728 335.52687906 263.30965874 323.98828125 272.58203125 C320.78394904 275.1748177 317.63818021 277.82800545 314.5 280.5 C310.55381448 283.85483632 306.58356755 287.17222782 302.5625 290.4375 C298.31607618 293.89274151 294.14703706 297.42697834 290 301 C284.98680512 305.31928956 279.9146268 309.55097119 274.77734375 313.72265625 C271.65603633 316.28204054 268.5754997 318.88593791 265.5 321.5 C260.65045949 325.62107792 255.74839036 329.66991483 250.8125 333.6875 C247.68199535 336.26147049 244.58857075 338.87602934 241.5 341.5 C205.71857765 371.84420415 205.71857765 371.84420415 186 373 C184.71029297 373.07927734 184.71029297 373.07927734 183.39453125 373.16015625 C171.49314559 373.52956498 160.25706174 370.79818471 148.9765625 367.3203125 C141.39266378 365.01378677 133.79495218 362.76327557 126.1796875 360.5625 C124.13932288 359.9713543 122.0989583 359.38020846 120.05859375 358.7890625 C116.96190286 357.89253595 113.86491447 356.99709397 110.76708984 356.10449219 C99.76893529 352.93344715 88.82379648 349.68964723 77.98461914 346.00822449 C72.32947277 344.09010252 66.63635538 342.38502184 60.875 340.8125 C59.16314895 340.34316319 57.45219186 339.8705524 55.7421875 339.39453125 C55.0188623 339.19706299 54.29553711 338.99959473 53.55029297 338.79614258 C51.39574102 338.12354121 49.31645825 337.37620238 47.20898438 336.57275391 C43.15548774 335.03336576 39.05823782 333.7127866 34.9140625 332.44140625 C33.39059701 331.96818905 31.86716041 331.49487887 30.34375 331.02148438 C27.98580626 330.29172625 25.62747583 329.5632626 23.26855469 328.83666992 C15.41403217 326.41390228 7.62606016 324.00975121 0.03564453 320.83374023 C-2.88081314 319.6392448 -5.8757354 318.71379246 -8.875 317.75 C-28.49765802 310.75557477 -43.57803925 294.89453623 -52.4375 276.375 C-59.32325282 261.25143693 -60.49860158 243.96862488 -55 228.1171875 C-49.05496058 212.82435582 -39.73793607 201.39712248 -26.03125 192.375 C-23.89869968 191.02482069 -23.89869968 191.02482069 -22 189 C-22.76183594 188.11699219 -23.52367187 187.23398437 -24.30859375 186.32421875 C-30.64466829 178.96563144 -36.88585076 171.54488252 -43 164 C-48.23875804 157.55302389 -53.53621217 151.16372208 -58.91577148 144.83422852 C-61.79520268 141.4408462 -64.63189727 138.01750083 -67.4375 134.5625 C-70.89275236 130.31606284 -74.42729444 126.14732084 -78 122 C-83.09676977 116.07605612 -88.11241955 110.09873834 -93 104 C-93.41523926 103.49114258 -93.83047852 102.98228516 -94.25830078 102.45800781 C-100.2332327 95.12037212 -105.35436641 87.80727322 -109 79 C-109.33902344 78.20078125 -109.67804688 77.4015625 -110.02734375 76.578125 C-115.22801258 61.52734148 -112.9143885 43.47217379 -106.78515625 29.1640625 C-99.27050942 13.96051617 -85.34515112 0.14564826 -70 -7 C-69.07574219 -7.44085938 -68.15148437 -7.88171875 -67.19921875 -8.3359375 C-44.44983639 -18.54512855 -19.73141783 -15.00380409 0 0 Z M-67 45 C-70.4052155 50.78129921 -70.9088557 55.42204436 -70 62 C-67.71171652 69.78500675 -62.31285333 75.27144702 -56.8359375 80.98828125 C-54.1963498 83.75140521 -51.77017195 86.64574226 -49.375 89.625 C-46.45684336 93.25311962 -43.4547187 96.75151794 -40.3125 100.1875 C-37.22261587 103.5805225 -34.41766742 107.03373202 -31.72265625 110.7421875 C-29.44105699 113.7325829 -27.00566802 116.57859572 -24.5625 119.4375 C-20.77182019 123.87582081 -17.078832 128.35968801 -13.53515625 133 C-11.72315479 135.36067365 -9.864163 137.68030845 -8 140 C-7.30261719 140.87398438 -6.60523438 141.74796875 -5.88671875 142.6484375 C-1.01419975 148.71481815 -1.01419975 148.71481815 4.375 154.3125 C9.3640252 159.12829516 13.40362765 164.78233846 17.63769531 170.25292969 C23.83242771 178.19728542 30.34042507 185.87618697 37.1171875 193.328125 C50.19740859 207.72089422 50.19740859 207.72089422 54.96484375 215 C57.02099269 218.03094508 59.24347154 220.58382005 61.75 223.25 C65.89839814 227.72364237 69.71883246 232.34059278 73.40625 237.19921875 C73.9321875 237.79347656 74.458125 238.38773438 75 239 C75.66 239 76.32 239 77 239 C77 239.99 77 240.98 77 242 C75.02 241.67 73.04 241.34 71 241 C71 240.34 71 239.68 71 239 C70.14277344 238.67386719 69.28554688 238.34773437 68.40234375 238.01171875 C57.94337554 234.01443552 57.94337554 234.01443552 54.25 232.3125 C48.7277056 230.08234265 42.99401963 228.61328906 37 229 C37 228.34 37 227.68 37 227 C17.05173829 222.63001232 17.05173829 222.63001232 -2.0859375 228.18359375 C-7.66849765 231.95877331 -12.24047298 236.81630378 -15 243 C-15.66141544 247.88896247 -16.26492991 253.47014019 -14 258 C-13.34 258 -12.68 258 -12 258 C-11.814375 258.825 -11.62875 259.65 -11.4375 260.5 C-8.90340461 266.66997137 -3.706915 272.52017378 2 276 C4.70134306 276.5918673 7.22576808 276.81191648 10 277 C10 277.66 10 278.32 10 279 C12.43572059 279.83887056 14.87333217 280.67126529 17.3125 281.5 C18.00279297 281.73847656 18.69308594 281.97695313 19.40429688 282.22265625 C22.38931489 283.23208263 24.82658914 284 28 284 C28 284.66 28 285.32 28 286 C30.26999825 286.50377768 32.54103003 287.00290019 34.8125 287.5 C36.07707031 287.7784375 37.34164062 288.056875 38.64453125 288.34375 C41.92086334 289.09596992 41.92086334 289.09596992 45 289 C45 289.66 45 290.32 45 291 C49.44625952 292.26757734 53.89370842 293.5308622 58.34228516 294.7902832 C59.85368276 295.21880888 61.36475596 295.64848052 62.87548828 296.0793457 C65.05415751 296.70048904 67.23398209 297.31742422 69.4140625 297.93359375 C70.08305573 298.12529648 70.75204895 298.31699921 71.4413147 298.51451111 C75.27335031 299.59258194 79.06157579 300.42176045 83 301 C83 301.66 83 302.32 83 303 C84.52753906 303.43082886 84.52753906 303.43082886 86.0859375 303.87036133 C89.89632261 304.94602641 93.70541923 306.02619498 97.51416016 307.10766602 C99.15672046 307.57339687 100.79961884 308.03793721 102.44287109 308.5012207 C104.8170001 309.17079139 107.18984401 309.84476194 109.5625 310.51953125 C110.64893799 310.82441216 110.64893799 310.82441216 111.75732422 311.13545227 C115.34869416 312.16128122 118.85589899 313.28691415 122.34838867 314.61376953 C125.40601359 315.77450994 128.10521615 316.53562562 131.3125 317.0625 C134.68912804 317.61908704 136.05503527 318.03669018 139 320 C141.64504238 320.77512472 144.26189464 321.47825564 146.9375 322.125 C147.65357422 322.30675781 148.36964844 322.48851562 149.10742188 322.67578125 C152.53535554 323.52085109 155.44772031 324 159 324 C159 324.66 159 325.32 159 326 C176.94095933 330.42853213 176.94095933 330.42853213 193.98828125 325.55078125 C196.63746079 323.50859819 198.91538184 321.24716245 201.203125 318.8125 C203.77763886 316.21559906 206.64446112 314.08557966 209.55078125 311.875 C216.72789507 306.3805588 223.57683333 300.54425719 230.2578125 294.4609375 C235.18828217 290.03615703 240.24133436 285.75175463 245.29052734 281.46337891 C246.47022116 280.45351248 247.64198713 279.43433666 248.80712891 278.40771484 C252.07197104 275.54535122 255.2518842 273.21180677 259 271 C261.09995748 269.32113491 263.15209407 267.6278967 265.1875 265.875 C265.75194824 265.39434082 266.31639648 264.91368164 266.89794922 264.41845703 C271.35297912 260.60686163 275.69065847 256.68081385 279.9765625 252.6796875 C282 251 282 251 285 250 C286.70315498 248.37063857 288.36270034 246.69552511 290 245 C292.28988388 242.80901476 294.61434037 240.65561206 296.9375 238.5 C297.53240234 237.94441406 298.12730469 237.38882813 298.74023438 236.81640625 C301.55090591 234.20539991 304.37973363 231.6604224 307.35546875 229.23828125 C311.26990112 225.9251797 311.85558819 223.58852987 312.3125 218.5625 C312.17906088 212.26659969 310.43920896 206.09950465 309 200 C308.34 200 307.68 200 307 200 C305.02 192.08 305.02 192.08 303 184 C302.34 184 301.68 184 301 184 C300.87625 182.783125 300.7525 181.56625 300.625 180.3125 C300.21108694 176.93520941 299.45426549 174.10243305 298 171 C297.34 171 296.68 171 296 171 C295.74089844 169.7315625 295.48179687 168.463125 295.21484375 167.15625 C294.02276687 161.80500953 292.35991997 156.67473774 290.5625 151.5 C290.26279297 150.59507812 289.96308594 149.69015625 289.65429688 148.7578125 C289.35716797 147.89929688 289.06003906 147.04078125 288.75390625 146.15625 C288.35667358 144.99319336 288.35667358 144.99319336 287.95141602 143.80664062 C287.0772629 141.64128077 287.0772629 141.64128077 284 141 C283.87625 140.154375 283.7525 139.30875 283.625 138.4375 C282.97229673 134.84763202 282.04752537 131.49175125 281 128 C280.34 128 279.68 128 279 128 C278.896875 127.29875 278.79375 126.5975 278.6875 125.875 C277.89493689 122.56064518 276.55069138 120.04600093 275 117 C273.66731171 113.88085532 272.37386645 110.74723825 271.0859375 107.609375 C270.43795925 106.05236252 269.75421001 104.50842002 269 103 C268.34 103 267.68 103 267 103 C266.62875 101.741875 266.2575 100.48375 265.875 99.1875 C263.5793527 92.28967824 260.02254524 86.03381786 256 80 C254.16350442 77.24525663 252.61889009 74.48122645 251.0625 71.5625 C249.28991819 68.25517646 247.48563293 65.13881785 245.25 62.125 C243.2624781 59.36455291 242.22962957 57.11506159 241 54 C239.68962066 52.31522656 238.35156675 50.65191491 237 49 C236.05591015 47.52503064 235.11900201 46.04545121 234.1875 44.5625 C229.6198619 37.68242357 224.20571034 32.83367829 216 31 C207.70889658 29.93590117 200.43989623 32.02327826 193.6875 36.875 C189.62567832 40.12769386 185.35477408 43.83183301 184.74853516 49.24560547 C184.5222463 56.60326332 186.00697808 61.64192982 189.375 68.125 C190.04305664 69.46981445 190.04305664 69.46981445 190.72460938 70.84179688 C194.47227833 78.26880422 198.62458596 85.44022395 202.96875 92.53125 C204.62328258 95.26508341 205.93039994 97.97721722 207 101 C205.25 101.75 205.25 101.75 203 102 C199.53872353 99.02797569 196.98141835 95.3988695 194.375 91.6875 C193.9433252 91.07720947 193.51165039 90.46691895 193.06689453 89.83813477 C186.68462063 80.7663369 180.51484971 71.57740337 174.8125 62.0625 C169.91287357 54.02790133 163.95624978 45.84275558 155.25 41.6875 C146.36177748 39.80729908 137.38656587 40.63230858 129.58203125 45.51171875 C124.17365029 49.54309149 116.07386016 55.95079211 114.59375 62.91015625 C114.24464823 70.92495109 118.06681084 75.83365508 122.53076172 82.17431641 C127.38884544 89.08863126 132.08685031 96.09776263 136.75 103.14453125 C137.3275 104.01464844 137.905 104.88476562 138.5 105.78125 C139.0671875 106.64105469 139.634375 107.50085938 140.21875 108.38671875 C141.44756763 110.18952356 142.7217882 111.96192159 144.03125 113.70703125 C145.00578125 115.01220703 145.00578125 115.01220703 146 116.34375 C146.598125 117.11912109 147.19625 117.89449219 147.8125 118.69335938 C149.29476322 121.57255816 148.94370781 122.96780248 148 126 C146.35 126 144.7 126 143 126 C142.72164307 125.41154297 142.44328613 124.82308594 142.15649414 124.21679688 C141.07379524 122.14145255 139.90865786 120.39199384 138.49609375 118.53125 C138.00713623 117.88365723 137.51817871 117.23606445 137.0144043 116.56884766 C136.23383667 115.54476807 136.23383667 115.54476807 135.4375 114.5 C134.63276245 113.43531494 134.63276245 113.43531494 133.81176758 112.34912109 C132.21046972 110.23074492 130.60548134 108.11520641 129 106 C120.53645324 94.82090997 120.53645324 94.82090997 116.75 89.3125 C113.40409614 84.4978543 109.90810165 79.80305173 106.375 75.125 C105.82424805 74.38677002 105.27349609 73.64854004 104.70605469 72.88793945 C99.90025841 66.18120709 99.90025841 66.18120709 92.82421875 62.5390625 C78.11088417 63.13082367 66.66641762 69.57339164 56.54296875 80.16015625 C52.27715201 85.24673772 50.0595815 90.5363767 50.3671875 97.2421875 C52.67292852 107.29066381 61.41836025 116.42589444 67.71777344 124.37060547 C68.99752628 125.99685651 70.25594333 127.63736755 71.5078125 129.28515625 C75.64311957 134.72741458 79.85133546 140.08006371 84.25 145.3125 C85.83349501 147.20819829 87.41684277 149.10401961 89 151 C89.64710938 151.76441406 90.29421875 152.52882813 90.9609375 153.31640625 C93.52090246 156.48331126 94.89336465 158.28021138 95.5 162.375 C95 165 95 165 93 167 C90.25566846 167.07840947 88.5809636 166.46216306 86.43359375 164.75390625 C82.09189076 160.55323306 78.3589822 155.84175041 74.57421875 151.14453125 C71.69017543 147.590836 68.69270922 144.13881229 65.6875 140.6875 C65.13441162 140.05207275 64.58132324 139.41664551 64.01147461 138.76196289 C62.88984982 137.47343643 61.76818645 136.18494355 60.64648438 134.89648438 C58.06362491 131.92144696 55.49956954 128.930442 52.9375 125.9375 C52.20333862 125.08067627 52.20333862 125.08067627 51.4543457 124.20654297 C48.94294789 121.27430291 46.43596418 118.33838524 43.93359375 115.3984375 C37.74875465 108.14178271 31.43827973 101.03379252 25 94 C21.02577652 89.65703414 17.41133034 85.24080996 14 80.4375 C11.2013506 76.52153952 8.31971067 73.16954937 4.83984375 69.86328125 C1.74911959 66.7331848 -0.91712556 63.25672826 -3.671875 59.83203125 C-5.91603244 57.10214175 -8.24050298 54.48253671 -10.625 51.875 C-13.44587693 48.79012419 -16.06298705 45.66218743 -18.5625 42.3125 C-23.70828798 35.57880065 -29.31657137 29.76564324 -38.015625 28.59375 C-51.2640362 28.20973808 -58.67955257 35.14762904 -67 45 Z "
                  fill="#FEFDFC" transform="translate(248,218)"/>
            <path d="M0 0 C52.8556454 -1.21941654 106.9637812 23.19443047 144.93359375 59.0625 C145.95671066 60.04064108 146.97880306 61.01985461 148 62 C148.56219238 62.53496094 149.12438477 63.06992188 149.70361328 63.62109375 C158.29750022 71.83782695 165.97818821 80.40463318 173 90 C173.76828125 91.04671875 174.5365625 92.0934375 175.328125 93.171875 C191.70513211 116.19130458 203.78403123 141.73234507 210.8125 169.125 C211.08646606 170.17651245 211.08646606 170.17651245 211.3659668 171.24926758 C211.98533096 173.82256119 212.50428142 176.39969881 213 179 C213.12494843 179.65315186 213.24989685 180.30630371 213.37863159 180.97924805 C215.85245783 194.32537141 216.49977084 207.4228015 216.44604492 220.97998047 C216.43754339 224.23339453 216.46642154 227.48503914 216.49804688 230.73828125 C216.56396331 250.08124465 214.05584551 268.84077256 208.4375 287.375 C208.00147461 288.87546875 208.00147461 288.87546875 207.55664062 290.40625 C207.26853516 291.39367187 206.98042969 292.38109375 206.68359375 293.3984375 C206.40950684 294.34307861 206.13541992 295.28771973 205.85302734 296.26098633 C205 299 205 299 203.99462891 301.55737305 C201.31112247 308.72068363 202.71059004 313.11889692 205.5 320.0625 C208.72555727 328.81029953 211.18991422 337.40056445 212.9375 346.5625 C213.13601563 347.60220947 213.33453125 348.64191895 213.5390625 349.71313477 C214.04937993 352.47260387 214.54452441 355.23095797 215 358 C215.26828613 359.54977539 215.26828613 359.54977539 215.54199219 361.13085938 C216.13829606 366.16829205 216.20178805 371.14607029 216.23828125 376.21484375 C216.25038887 377.84589806 216.25038887 377.84589806 216.26274109 379.50990295 C216.27654389 381.81542388 216.28728297 384.12096491 216.29516602 386.42651367 C216.30657205 388.73679789 216.32683783 391.04705822 216.35668945 393.35717773 C217.13231318 453.53951294 192.10468618 508.95905941 150.4375 551.8125 C146.42675401 555.72207402 142.16627914 559.27079804 137.7890625 562.76171875 C136.00801742 564.19104485 134.24980181 565.64961957 132.5234375 567.14453125 C97.95813638 596.84072648 46.81026735 617.07878524 1 615 C3.27726752 610.73012339 5.78550357 606.87512098 8.6875 603 C43.47560859 555.50332038 52.15436623 498.41927605 48 441 C49.21171875 440.6596875 50.4234375 440.319375 51.671875 439.96875 C83.13153331 430.94902533 112.32441244 416.85077282 137 395 C137.78632812 394.32195312 138.57265625 393.64390625 139.3828125 392.9453125 C160.55009684 374.36438444 197.20607135 338.0264874 199.1862793 308.19360352 C198.98525981 304.74729164 198.24031849 302.64469715 196.76171875 299.54296875 C196.27687012 298.52106445 195.79202148 297.49916016 195.29248047 296.44628906 C194.76283691 295.37088867 194.23319336 294.29548828 193.6875 293.1875 C192.87369873 291.5183252 192.87369873 291.5183252 192.04345703 289.81542969 C172.348339 250.17335253 140.33516555 217.78226896 102 196 C101.13568359 195.49605713 101.13568359 195.49605713 100.25390625 194.98193359 C83.98413218 185.52351335 66.03014678 179.20754602 48 174 C47.93008158 169.59513949 47.94085103 165.46990569 48.4921875 161.08984375 C50.45987266 144.14111839 49.82463696 125.81349802 47 109 C46.87109375 108.17161621 46.7421875 107.34323242 46.609375 106.48974609 C40.72956832 68.90389851 25.87868775 34.58243579 2.78515625 4.3984375 C1 2 1 2 0 0 Z "
                  fill="#FBB115" transform="translate(565,83)"/>
            <path d="M0 0 C-2.89029805 4.36393227 -5.78944906 8.71804274 -8.7890625 13.0078125 C-21.30958601 31.06794482 -30.85148053 50.23547063 -38 71 C-38.61101562 72.73056641 -38.61101562 72.73056641 -39.234375 74.49609375 C-43.99185087 88.86001129 -49.17509983 107.92292673 -47.66015625 123.09375 C-46.73507617 133.21033085 -46.73507617 133.21033085 -49.13818359 136.61035156 C-52.22410048 139.7465879 -55.80057654 142.21938698 -59.37597656 144.76171875 C-66.93234231 150.52327724 -72.47880615 160.35361833 -76 169 C-76.2423888 171.00020024 -76.48402692 173.00081271 -76.68237305 175.00585938 C-77.14953544 178.77176942 -77.77454924 181.86122819 -80 185 C-85.2533531 188.99070921 -91.46174912 191.37286861 -97.46484375 194.01171875 C-128.11028886 207.51121987 -156.29608771 234.71089141 -175 262 C-175.49757812 262.71768555 -175.99515625 263.43537109 -176.5078125 264.17480469 C-183.10155384 273.79913099 -188.66182502 283.84869692 -193.8125 294.3125 C-194.61409546 295.91448242 -194.61409546 295.91448242 -195.43188477 297.54882812 C-195.91455811 298.56009766 -196.39723145 299.57136719 -196.89453125 300.61328125 C-197.54192261 301.95579956 -197.54192261 301.95579956 -198.20239258 303.32543945 C-199.57314939 307.9219013 -198.28818218 311.8710481 -196.3203125 316.109375 C-195.97444092 316.85469482 -195.62856934 317.60001465 -195.2722168 318.36791992 C-194.70434448 319.54704956 -194.70434448 319.54704956 -194.125 320.75 C-193.52715698 321.99583862 -193.52715698 321.99583862 -192.91723633 323.2668457 C-178.65397273 352.36874872 -157.49789271 378.993423 -132 399 C-131.04996094 399.77859375 -130.09992188 400.5571875 -129.12109375 401.359375 C-106.0651776 419.85122091 -79.27528816 431.59292405 -51.22705078 440.23486328 C-49 441 -49 441 -48 442 C-48.02040682 444.43977023 -48.10351895 446.84987914 -48.2265625 449.28515625 C-48.29306188 450.84800102 -48.35801582 452.41091212 -48.42163086 453.97387695 C-48.45578094 454.80295563 -48.48993103 455.6320343 -48.52511597 456.48623657 C-50.60785337 510.20533499 -38.49982921 562.32065934 -6.19140625 606.01953125 C-4.0286895 608.96098024 -2.00238825 611.94852451 0 615 C-32.98929242 616.93108053 -68.27137775 605.57949713 -97 590 C-97.64598145 589.65888184 -98.29196289 589.31776367 -98.95751953 588.96630859 C-150.2398495 561.86732695 -188.77313406 514.46668213 -206.57666016 459.46118164 C-212.12604685 441.3713594 -216.06591393 422.3679272 -216.23828125 403.41015625 C-216.2480751 402.51635757 -216.25786896 401.6225589 -216.26795959 400.70167542 C-216.53043894 370.53288428 -215.01094081 340.37761163 -202.56640625 312.31640625 C-200.84334678 305.26968716 -204.65747339 297.5445306 -206.8125 290.9375 C-212.43603164 273.22005559 -216.10751584 255.08603706 -216.203125 236.453125 C-216.20882507 235.56123474 -216.21452515 234.66934448 -216.22039795 233.75042725 C-216.22979074 231.86797243 -216.23635898 229.9855016 -216.24023438 228.10302734 C-216.24983283 225.29883917 -216.2808665 222.49541973 -216.3125 219.69140625 C-216.58141802 174.15987968 -201.44893739 128.37159453 -174 92 C-173.55446777 91.401875 -173.10893555 90.80375 -172.64990234 90.1875 C-165.97825698 81.27596794 -158.69614336 73.03493177 -151 65 C-150.29101562 64.24976563 -149.58203125 63.49953125 -148.8515625 62.7265625 C-135.34516805 48.77914292 -118.81923118 37.55678715 -102 28 C-101.42378906 27.66403809 -100.84757812 27.32807617 -100.25390625 26.98193359 C-70.7068776 9.80479194 -34.23358969 -0.48905128 0 0 Z "
                  fill="#FBB115" transform="translate(216,83)"/>
            <path d="M0 0 C2.15445189 0.00529882 4.30868972 0.00006365 6.46313477 -0.00634766 C20.30586273 -0.01626571 33.73486556 0.71034017 47.30883789 3.63037109 C48.4000293 3.85595703 49.4912207 4.08154297 50.61547852 4.31396484 C94.07296836 13.35312273 131.05985727 34.91512742 163.12133789 65.13037109 C163.85352539 65.82001953 164.58571289 66.50966797 165.34008789 67.22021484 C170.75177092 72.47083588 175.44336129 78.22628043 180.12133789 84.13037109 C180.90379883 85.08427734 181.68625977 86.03818359 182.49243164 87.02099609 C192.69542965 99.75433761 200.74681666 113.85480215 207.87133789 128.50537109 C208.30188477 129.37871094 208.73243164 130.25205078 209.17602539 131.15185547 C211.62176842 136.3389363 213.43510801 140.38251081 211.43823242 146.07910156 C210.47568612 148.39266343 209.41533084 150.63212307 208.30883789 152.88037109 C207.90721436 153.70947998 207.50559082 154.53858887 207.09179688 155.39282227 C191.26372996 187.38533662 167.35632422 217.44915443 138.12133789 238.13037109 C137.44135742 238.6116748 136.76137695 239.09297852 136.06079102 239.58886719 C113.71264432 255.23558175 90.34394686 266.59939038 64.12133789 274.13037109 C63.45602051 274.32614746 62.79070312 274.52192383 62.10522461 274.72363281 C49.97604822 278.24580044 37.64160218 279.7375959 25.12133789 281.13037109 C23.95344727 281.26443359 22.78555664 281.39849609 21.58227539 281.53662109 C5.34941775 283.14649127 -10.7069769 281.74260857 -26.87866211 280.13037109 C-25.05290371 276.10413532 -22.44872766 273.81158427 -19.06616211 271.06787109 C-17.88499146 270.09022523 -16.7040071 269.11235425 -15.52319336 268.13427734 C-14.91813965 267.63686035 -14.31308594 267.13944336 -13.68969727 266.62695312 C-11.40072583 264.7354197 -9.13871395 262.813482 -6.87792969 260.88842773 C-2.41561796 257.08878909 2.07692083 253.33176586 6.62133789 249.63037109 C12.8604901 244.54796681 18.99717866 239.35018557 25.12133789 234.13037109 C25.91024414 233.46779297 26.69915039 232.80521484 27.51196289 232.12255859 C40.49988997 221.0679489 48.74295895 207.1060867 50.42993164 190.00146484 C51.00181934 174.76845604 45.52872803 160.91011542 40.43066406 146.7644043 C39.14682647 143.20111462 37.88152129 139.63177416 36.62133789 136.06005859 C36.20883789 134.89603516 35.79633789 133.73201172 35.37133789 132.53271484 C34.53554444 130.1742102 33.70222465 127.81482755 32.87133789 125.45458984 C30.18921879 117.90274825 27.25320544 110.50558599 24.12133789 103.13037109 C23.52662939 101.67739713 22.93510569 100.22311233 22.34790039 98.76708984 C19.35202001 91.36760418 16.23916294 84.0579875 12.80615234 76.85009766 C11.25139473 73.57899365 9.7477356 70.29701265 8.32446289 66.96630859 C0.55198378 48.81692742 -9.31002063 31.8307698 -19.42211914 14.89746094 C-19.98914551 13.94049316 -20.55617188 12.98352539 -21.14038086 11.99755859 C-21.64529053 11.15306152 -22.1502002 10.30856445 -22.67041016 9.43847656 C-23.78612325 7.30714669 -24.42286444 5.48075758 -24.87866211 3.13037109 C-17.93090272 -1.5014685 -8.08128986 -0.02355797 0 0 Z "
                  fill="#F68A1F" transform="translate(552.878662109375,249.86962890625)"/>
            <path d="M0 0 C0.02578125 1.14855469 0.0515625 2.29710937 0.078125 3.48046875 C0.39377589 13.21935101 1.35264521 21.85049226 5 31 C5.32613281 31.83402344 5.65226562 32.66804688 5.98828125 33.52734375 C11.38778419 45.64186488 21.55706316 55.75566745 30.16015625 65.6953125 C33.42461906 69.47567605 36.5742091 73.34545461 39.72265625 77.22265625 C42.28204272 80.34396633 44.88604122 83.42440998 47.5 86.5 C51.5501864 91.26905969 55.54352242 96.0791259 59.49609375 100.9296875 C62.61343017 104.75219362 65.74203489 108.56529757 68.875 112.375 C69.47207764 113.10146729 70.06915527 113.82793457 70.68432617 114.57641602 C75.28788579 120.16524853 79.96664321 125.68472457 84.6953125 131.16796875 C87.01768526 134.02173188 89.01250586 136.90885129 91 140 C90.39414063 140.40089844 89.78828125 140.80179688 89.1640625 141.21484375 C74.93534896 150.86847863 64.2797644 161.76510522 58 178 C57.649375 178.87269531 57.29875 179.74539063 56.9375 180.64453125 C55.62452201 185.34389831 55.27599411 190.02362868 54.875 194.875 C54.74544922 196.33679688 54.74544922 196.33679688 54.61328125 197.828125 C54.40238659 200.21826446 54.19815363 202.60877625 54 205 C53.67 205 53.34 205 53 205 C52.67 201.7 52.34 198.4 52 195 C42.36203164 216.45386723 36.24708045 237.69469141 33 261 C32.77626709 260.37923584 32.55253418 259.75847168 32.32202148 259.11889648 C30.53501205 256.25473122 29.06192756 256.02370045 25.84765625 255.09765625 C24.77435059 254.77168457 23.70104492 254.44571289 22.59521484 254.10986328 C21.42941895 253.7642334 20.26362305 253.41860352 19.0625 253.0625 C-2.02079717 246.41160869 -22.03952267 236.9711833 -40 224 C-40.57314941 223.58685547 -41.14629883 223.17371094 -41.73681641 222.74804688 C-58.93076741 210.20178138 -75.00981096 195.91175555 -88 179 C-88.64751221 178.15912842 -88.64751221 178.15912842 -89.30810547 177.30126953 C-99.71244466 163.70582312 -108.20550515 149.22033116 -116 134 C-116.46921875 133.09894531 -116.9384375 132.19789063 -117.421875 131.26953125 C-117.79828125 130.49996094 -118.1746875 129.73039063 -118.5625 128.9375 C-118.87316406 128.30714844 -119.18382813 127.67679687 -119.50390625 127.02734375 C-121.12050244 120.42093886 -116.85733974 113.88493549 -114.0625 108.125 C-113.56959473 107.1043042 -113.07668945 106.0836084 -112.56884766 105.03198242 C-106.04298943 91.74742334 -98.24356626 79.56831503 -89 68 C-88.36916504 67.20142578 -87.73833008 66.40285156 -87.08837891 65.58007812 C-81.5831765 58.71347871 -75.7279026 52.34019146 -69.5 46.125 C-69.02267426 45.64855042 -68.54534851 45.17210083 -68.05355835 44.68121338 C-59.61295628 36.29122515 -50.85218172 28.70011715 -41 22 C-40.25717773 21.4932373 -39.51435547 20.98647461 -38.74902344 20.46435547 C-8.36275008 0 -8.36275008 0 0 0 Z "
                  fill="#F68A1F" transform="translate(136,268)"/>
            <path d="M0 0 C1.34473137 -0.01469078 1.34473137 -0.01469078 2.71662903 -0.02967834 C21.9624102 -0.19669496 40.53914954 -0.16960967 59.375 4.23828125 C60.33519043 4.45258789 61.29538086 4.66689453 62.28466797 4.88769531 C108.07234696 15.26069959 159.57138805 42.08159717 186.375 82.23828125 C186.375 82.56828125 186.375 82.89828125 186.375 83.23828125 C185.50101563 83.27791992 184.62703125 83.31755859 183.7265625 83.35839844 C119.05105062 86.42607864 62.16121351 106.85700107 15.94921875 153.49609375 C14.30015799 155.16476883 14.30015799 155.16476883 13.375 157.23828125 C10.30664994 155.87675853 8.28271327 154.35754625 5.9765625 151.9296875 C5.33952393 151.2704126 4.70248535 150.6111377 4.04614258 149.93188477 C3.37091553 149.22862061 2.69568848 148.52535645 2 147.80078125 C-5.09256997 140.56915713 -12.44830501 134.19913573 -20.625 128.23828125 C-21.62273437 127.49578125 -22.62046875 126.75328125 -23.6484375 125.98828125 C-65.22111046 96.06450637 -112.26516102 84.99876447 -162.625 83.23828125 C-158.7774012 77.92949251 -154.73975447 72.95277262 -150.25 68.17578125 C-149.67620605 67.5636377 -149.10241211 66.95149414 -148.51123047 66.32080078 C-144.42547534 62.00210111 -140.25578913 57.97330461 -135.625 54.23828125 C-134.52717952 53.3283231 -133.42954106 52.41814532 -132.33203125 51.5078125 C-95.42815447 21.1675573 -48.29608244 0.43745135 0 0 Z "
                  fill="#FBB115" transform="translate(378.625,-0.23828125)"/>
            <path d="M0 0 C3.91426066 3.2025769 7.54920068 6.52379147 11.07275391 10.15576172 C17.8849762 17.16000339 25.17548664 23.16517335 33 29 C33.55913086 29.42522949 34.11826172 29.85045898 34.69433594 30.28857422 C71.42974444 58.17789048 116.79433324 72.13443955 162.5625 73.5625 C164.50479492 73.62727539 164.50479492 73.62727539 166.48632812 73.69335938 C169.65746384 73.79867385 172.82866793 73.90080617 176 74 C171.23326469 80.89590158 165.60969378 86.77604874 159.6875 92.6875 C159.20401093 93.17077759 158.72052185 93.65405518 158.22238159 94.15197754 C149.72472575 102.61276984 140.83652013 110.13516277 131 117 C129.80844836 117.86047579 128.61703833 118.72114771 127.42578125 119.58203125 C106.27350618 134.55515414 82.13391982 144.70653238 57.1875 151.375 C56.34251953 151.60171387 55.49753906 151.82842773 54.62695312 152.06201172 C51.76248211 152.78137717 48.89347404 153.40707678 46 154 C45.36349518 154.13097076 44.72699036 154.26194153 44.07119751 154.3968811 C30.94542612 157.0080419 18.02726893 157.49765437 4.66821289 157.44604492 C1.33351386 157.43755351 -1.9994537 157.46639227 -5.33398438 157.49804688 C-24.5622465 157.5616225 -43.33406379 155.18005966 -61.8125 149.75 C-62.84109131 149.45407959 -63.86968262 149.15815918 -64.92944336 148.85327148 C-74.62390378 145.97357249 -83.85365117 142.29635792 -93 138 C-93.69915527 137.67386719 -94.39831055 137.34773437 -95.11865234 137.01171875 C-124.18280696 123.31521031 -155.87025597 102.16165288 -174 75 C-174 74.67 -174 74.34 -174 74 C-173.40912598 73.98541748 -172.81825195 73.97083496 -172.20947266 73.95581055 C-113.97038901 72.37498754 -59.52081987 56.3485302 -16.13671875 15.984375 C-14.0553905 14.05144127 -11.91606289 12.21188636 -9.75 10.375 C-6.09626628 7.20397501 -3.05743648 3.74535968 0 0 Z "
                  fill="#FBB115" transform="translate(390,624)"/>
            <path d="M0 0 C4.72226794 3.79756529 7.6664656 7.98503743 10.54296875 13.29296875 C11.80411387 15.42091863 13.12452712 16.80388624 14.8671875 18.52734375 C15.58951035 20.20181945 16.3079332 21.87834746 16.98828125 23.5703125 C18.2642684 26.41151056 19.93193817 28.94936042 21.6171875 31.5625 C23.10010401 33.89345939 24.43304904 36.30035418 25.78125 38.7109375 C26.98600095 40.72607848 28.32498183 42.60996932 29.6796875 44.52734375 C32.47618508 48.65414452 34.63881062 52.95906215 36.7421875 57.46484375 C37.20782104 58.45967773 37.20782104 58.45967773 37.68286133 59.47460938 C39.8671875 64.25926506 39.8671875 64.25926506 39.8671875 66.52734375 C40.5271875 66.52734375 41.1871875 66.52734375 41.8671875 66.52734375 C42.19332031 67.40777344 42.51945312 68.28820312 42.85546875 69.1953125 C43.29246094 70.35675781 43.72945312 71.51820313 44.1796875 72.71484375 C44.82357422 74.43767578 44.82357422 74.43767578 45.48046875 76.1953125 C46.72805085 79.19302387 48.12683667 81.7959598 49.8671875 84.52734375 C51.40368058 87.27685768 51.8671875 88.30149069 51.8671875 91.52734375 C52.5271875 91.52734375 53.1871875 91.52734375 53.8671875 91.52734375 C54.37230994 93.12990483 54.87110377 94.73446167 55.3671875 96.33984375 C55.78484375 97.67982422 55.78484375 97.67982422 56.2109375 99.046875 C56.8671875 101.52734375 56.8671875 101.52734375 56.8671875 104.52734375 C57.8571875 104.85734375 58.8471875 105.18734375 59.8671875 105.52734375 C60.84679555 107.89572542 61.638117 110.14512456 62.3671875 112.58984375 C64.33493387 118.89418498 64.33493387 118.89418498 66.6171875 125.08984375 C67.77353212 128.26979146 68.44852321 131.17802943 68.8671875 134.52734375 C69.5271875 134.52734375 70.1871875 134.52734375 70.8671875 134.52734375 C71.37476612 135.94131277 71.87293675 137.35866104 72.3671875 138.77734375 C72.78484375 139.96070313 72.78484375 139.96070313 73.2109375 141.16796875 C73.8671875 143.52734375 73.8671875 143.52734375 73.8671875 147.52734375 C74.5271875 147.52734375 75.1871875 147.52734375 75.8671875 147.52734375 C77.8471875 155.44734375 77.8471875 155.44734375 79.8671875 163.52734375 C80.5271875 163.52734375 81.1871875 163.52734375 81.8671875 163.52734375 C86.58501321 183.52193844 86.58501321 183.52193844 81.8671875 191.52734375 C79.98987811 193.65496106 77.92986255 195.52570194 75.8046875 197.40234375 C75.23266602 197.91974121 74.66064453 198.43713867 74.07128906 198.97021484 C69.75866268 202.83525924 65.29653984 206.48619373 60.6953125 210.00390625 C58.75825961 211.41118383 58.75825961 211.41118383 57.8671875 213.52734375 C57.13757813 213.95789063 56.40796875 214.3884375 55.65625 214.83203125 C52.443372 216.7849571 49.9727289 219.06900135 47.2421875 221.65234375 C33.69633221 234.29993278 33.69633221 234.29993278 27.4765625 237.91796875 C24.02891497 240.04436214 21.09842557 242.61592887 18.0546875 245.27734375 C17.43303711 245.81593018 16.81138672 246.3545166 16.17089844 246.90942383 C14.39993742 248.44525856 12.63321538 249.98584235 10.8671875 251.52734375 C10.09503906 252.19636719 9.32289063 252.86539062 8.52734375 253.5546875 C5.805553 255.92025206 3.1086618 258.30690109 0.4453125 260.73828125 C-3.90095123 264.70260059 -8.25148851 268.47159534 -13.00390625 271.9375 C-19.05651666 276.45752282 -24.84441138 281.33690163 -30.4453125 286.40234375 C-36.36500443 291.53591965 -40.78918249 293.00931521 -48.609375 292.83203125 C-55.2091004 292.26132329 -61.66115417 290.90708817 -68.1328125 289.52734375 C-68.1328125 288.86734375 -68.1328125 288.20734375 -68.1328125 287.52734375 C-69.1640625 287.44484375 -70.1953125 287.36234375 -71.2578125 287.27734375 C-77.73029327 286.48126323 -83.90396104 284.38827457 -90.1328125 282.52734375 C-91.22464844 282.21667969 -92.31648437 281.90601563 -93.44140625 281.5859375 C-100.69368911 279.50618231 -107.89716262 277.29796198 -115.07568359 274.97680664 C-124.69719966 271.86748731 -134.32412401 268.98715504 -144.1328125 266.52734375 C-144.1328125 265.86734375 -144.1328125 265.20734375 -144.1328125 264.52734375 C-145.38312256 264.34377319 -145.38312256 264.34377319 -146.65869141 264.15649414 C-150.41834497 263.47563488 -154.05064643 262.51204749 -157.71875 261.4609375 C-158.42053375 261.26258804 -159.1223175 261.06423859 -159.84536743 260.85987854 C-162.06704859 260.23120981 -164.28743557 259.59810161 -166.5078125 258.96484375 C-168.02205183 258.53551236 -169.53637396 258.10647293 -171.05078125 257.67773438 C-174.74575798 256.63097835 -178.43958138 255.58024137 -182.1328125 254.52734375 C-182.1328125 253.86734375 -182.1328125 253.20734375 -182.1328125 252.52734375 C-187.78427473 251.35611516 -193.40882457 250.27395087 -199.1328125 249.52734375 C-199.1328125 248.86734375 -199.1328125 248.20734375 -199.1328125 247.52734375 C-199.67808594 247.41777344 -200.22335937 247.30820312 -200.78515625 247.1953125 C-206.38816315 246.01724438 -211.7382512 244.44030875 -217.1328125 242.52734375 C-217.1328125 241.86734375 -217.1328125 241.20734375 -217.1328125 240.52734375 C-218.2878125 240.50671875 -219.4428125 240.48609375 -220.6328125 240.46484375 C-227.30204902 239.64892652 -231.15587926 234.66035067 -235.5078125 229.96484375 C-237.32289253 227.2422237 -238.25611319 224.66884962 -239.1328125 221.52734375 C-239.7928125 221.52734375 -240.4528125 221.52734375 -241.1328125 221.52734375 C-243.39522539 217.00251797 -242.8083268 211.40971947 -242.1328125 206.52734375 C-238.08124414 197.93345367 -231.36773501 192.79185719 -223.1328125 188.52734375 C-212.0668326 185.75632096 -201.03165439 188.20373279 -190.1328125 190.52734375 C-190.1328125 191.18734375 -190.1328125 191.84734375 -190.1328125 192.52734375 C-189.09833984 192.58341797 -189.09833984 192.58341797 -188.04296875 192.640625 C-178.85416617 193.28346304 -171.51469942 195.80206067 -163.1328125 199.52734375 C-161.82111359 200.09170929 -160.50862791 200.6542502 -159.1953125 201.21484375 C-158.1846875 201.64796875 -157.1740625 202.08109375 -156.1328125 202.52734375 C-156.1328125 203.18734375 -156.1328125 203.84734375 -156.1328125 204.52734375 C-154.1528125 204.85734375 -152.1728125 205.18734375 -150.1328125 205.52734375 C-150.1328125 204.53734375 -150.1328125 203.54734375 -150.1328125 202.52734375 C-150.7928125 202.52734375 -151.4528125 202.52734375 -152.1328125 202.52734375 C-153.50493551 200.99539103 -154.8043571 199.39813294 -156.0703125 197.77734375 C-160.02097435 192.81171511 -164.17025861 188.14226227 -168.58959961 183.58886719 C-171.01600451 181.02482182 -172.72643623 179.10853462 -173.1328125 175.52734375 C-172.4728125 175.19734375 -171.8128125 174.86734375 -171.1328125 174.52734375 C-171.1328125 175.18734375 -171.1328125 175.84734375 -171.1328125 176.52734375 C-164.29936617 178.82400358 -157.44227066 181.03637389 -150.5703125 183.21484375 C-149.56162109 183.53517578 -148.55292969 183.85550781 -147.51367188 184.18554688 C-145.05356633 184.96671783 -142.59327743 185.74730563 -140.1328125 186.52734375 C-140.205 187.58566406 -140.2771875 188.64398438 -140.3515625 189.734375 C-140.97612954 199.64632053 -141.24132929 209.53301996 -141.2578125 219.46484375 C-141.26232422 220.57641846 -141.26683594 221.68799316 -141.27148438 222.83325195 C-141.84224391 235.00088836 -141.84224391 235.00088836 -139.1328125 246.52734375 C-119.15997918 234.47698218 -101.33520103 220.32492206 -85.1328125 203.52734375 C-81.87979454 204.92048405 -80.09895034 206.4769453 -77.8828125 209.21484375 C-74.28721097 213.44898762 -70.38611857 216.96950081 -66.1328125 220.52734375 C-64.83923828 221.65269531 -64.83923828 221.65269531 -63.51953125 222.80078125 C-57.89357496 227.62737975 -52.1152514 232.07378481 -46.0078125 236.27734375 C-45.37552734 236.71272461 -44.74324219 237.14810547 -44.09179688 237.59667969 C-38.89667958 241.11603864 -33.53536571 244.33800107 -28.1328125 247.52734375 C-28.10718286 241.09017805 -28.08982993 234.6530258 -28.07788086 228.21582031 C-28.07289253 226.03189604 -28.06609948 223.84797504 -28.05737305 221.6640625 C-28.01161908 209.90798503 -27.98286544 198.23943135 -29.1328125 186.52734375 C-28.34447021 186.28201904 -27.55612793 186.03669434 -26.74389648 185.78393555 C5.01448013 175.8045748 32.75734363 162.39293449 58.8671875 141.52734375 C59.85074219 140.74230469 60.83429688 139.95726562 61.84765625 139.1484375 C62.51410156 138.61347656 63.18054688 138.07851563 63.8671875 137.52734375 C62.29868049 133.13344663 58.85175211 130.74331756 55.3046875 127.96484375 C54.63630859 127.43890625 53.96792969 126.91296875 53.27929688 126.37109375 C32.93450515 110.61663108 10.14956344 98.90789937 -14.1328125 90.52734375 C-14.91350098 90.25776855 -15.69418945 89.98819336 -16.49853516 89.71044922 C-20.6975205 88.27179964 -24.90837088 86.89281983 -29.1328125 85.52734375 C-28.4728125 78.59734375 -27.8128125 71.66734375 -27.1328125 64.52734375 C-24.1628125 65.02234375 -24.1628125 65.02234375 -21.1328125 65.52734375 C-20.8028125 64.53734375 -20.4728125 63.54734375 -20.1328125 62.52734375 C-21.30038487 60.29666601 -22.51718767 58.25780985 -23.8828125 56.15234375 C-27.90684602 49.71421405 -31.55913206 43.13347081 -35.0703125 36.40234375 C-35.54243164 35.50209473 -36.01455078 34.6018457 -36.50097656 33.67431641 C-40.63274631 25.72088436 -43.19698988 19.6604104 -42.1328125 10.52734375 C-38.82943599 3.52418554 -32.20423455 -1.55185149 -25.1328125 -4.47265625 C-15.87898632 -7.22379376 -7.81542785 -5.39636685 0 0 Z "
                  fill="#F36E21" transform="translate(475.1328125,254.47265625)"/>
            <path d="M0 0 C0.7115625 -0.04898437 1.423125 -0.09796875 2.15625 -0.1484375 C8.00160321 1.15702472 11.89376299 6.83936218 15.3125 11.375 C15.73845459 11.93823975 16.16440918 12.50147949 16.60327148 13.08178711 C20.31088943 18.02504888 23.80782002 23.10373695 27.296875 28.203125 C30.88551569 33.36974953 34.69541275 38.36662874 38.5 43.375 C40.64992747 46.20525825 42.79486146 49.03922095 44.9375 51.875 C45.45803955 52.55796143 45.9785791 53.24092285 46.51489258 53.94458008 C47.24808716 54.91560669 47.24808716 54.91560669 47.99609375 55.90625 C48.43107178 56.47923828 48.8660498 57.05222656 49.31420898 57.64257812 C50.57325184 59.48201977 51.54780808 61.36203046 52.5 63.375 C54.15 63.375 55.8 63.375 57.5 63.375 C58.1878236 61.02132287 58.1878236 61.02132287 58.5 58.375 C57.84 57.385 57.18 56.395 56.5 55.375 C56.5 54.385 56.5 53.395 56.5 52.375 C58.640625 52.3984375 58.640625 52.3984375 61.5 53.375 C63.74463781 55.68732324 65.46879288 58.32254251 67.25 61 C67.77585693 61.7719873 68.30171387 62.54397461 68.84350586 63.33935547 C70.41710438 65.67116194 71.96326378 68.01877287 73.5 70.375 C73.91330566 71.00277344 74.32661133 71.63054687 74.75244141 72.27734375 C79.99806778 80.33304701 84.37421211 88.82237161 88.625 97.4375 C89.12330322 98.42572754 89.62160645 99.41395508 90.13500977 100.43212891 C93.47310178 107.36951878 93.47310178 107.36951878 93.58203125 111.44140625 C91.96400368 115.82818859 90.09827429 120.04153816 88.0625 124.25 C87.61438965 125.17965576 87.1662793 126.10931152 86.70458984 127.06713867 C77.87455997 145.04994698 66.26532183 161.79995336 52.5 176.375 C50.80428532 174.7322764 49.1469049 173.06619819 47.5 171.375 C46.94183594 170.81296875 46.38367188 170.2509375 45.80859375 169.671875 C29.78353226 152.67661146 18.14774134 130.0719883 9.53515625 108.4921875 C6.10280839 99.92785929 3.18427216 92.90316389 -3.5 86.375 C-9.36747008 79.50260411 -14.84359044 72.34869561 -20.21972656 65.08935547 C-21.64112275 63.18602899 -23.08102757 61.29760352 -24.5234375 59.41015625 C-40.58174121 38.35891372 -40.58174121 38.35891372 -39.9375 29.7421875 C-38.14013833 20.01717702 -30.64831372 12.99595581 -22.80078125 7.4765625 C-15.38896514 2.93419388 -8.71029675 0.52612531 0 0 Z "
                  fill="#EE3C23" transform="translate(338.5,280.625)"/>
            <path d="M0 0 C7.26154864 4.32374469 12.94556684 10.42340975 17.9453125 17.16015625 C20.40626631 20.38586861 23.01449645 23.46467899 25.65625 26.54296875 C26.42702881 27.44208984 26.42702881 27.44208984 27.21337891 28.359375 C30.61023595 32.29469366 34.10498584 36.12224027 37.65625 39.91796875 C40.99725588 43.49463749 44.03164569 47.15564672 46.84375 51.16796875 C51.21822656 57.39664731 56.36117042 62.78924784 61.57421875 68.31005859 C66.86619121 73.953148 71.78082663 79.94105159 76.76513672 85.85424805 C80.73282465 90.55115874 84.78850729 95.16437584 88.90625 99.73046875 C87.90625 102.73046875 87.90625 102.73046875 85.98291016 103.89038086 C85.14550293 104.2591333 84.3080957 104.62788574 83.4453125 105.0078125 C82.50727783 105.43328369 81.56924316 105.85875488 80.6027832 106.29711914 C79.58917725 106.74949951 78.57557129 107.20187988 77.53125 107.66796875 C67.01345799 112.50593912 57.34133708 118.12720188 47.73950195 124.57641602 C45.90625 125.73046875 45.90625 125.73046875 43.73510742 126.75756836 C41.73163369 127.59669163 41.73163369 127.59669163 40.90625 129.73046875 C40.50535156 129.26898438 40.10445313 128.8075 39.69140625 128.33203125 C36.24616148 124.37898396 32.75892922 120.47387651 29.21875 116.60546875 C26.08718816 113.14064949 23.4388699 109.66039618 20.90625 105.73046875 C19.52809805 104.04223261 18.09887964 102.40593103 16.6640625 100.765625 C12.98148123 96.50201424 9.46483601 92.09755606 5.90625 87.73046875 C3.65752055 84.98072703 1.40752899 82.23202974 -0.84375 79.484375 C-2.34885953 77.64218364 -3.84883632 75.79578725 -5.34375 73.9453125 C-9.69356374 68.57601116 -14.17546448 63.38550949 -18.828125 58.27734375 C-22.03045168 54.67748686 -25.06242358 50.94964019 -28.0859375 47.19921875 C-29.67328747 45.24745769 -31.29893712 43.3602581 -32.96875 41.48046875 C-37.38348002 35.76728872 -38.74426815 30.54221179 -38.4921875 23.42578125 C-37.0986629 13.99899716 -28.13871043 7.13211208 -21.34765625 1.20703125 C-15.47105026 -2.92564428 -6.41220565 -2.63127126 0 0 Z "
                  fill="#F36E22" transform="translate(216.09375,248.26953125)"/>
            <path d="M0 0 C2.15445189 0.00529882 4.30868972 0.00006365 6.46313477 -0.00634766 C20.40075432 -0.01643385 33.89328601 0.74507531 47.55883789 3.69287109 C49.24589844 4.04381836 49.24589844 4.04381836 50.96704102 4.40185547 C53.68717262 4.96903185 56.40503238 5.54519667 59.12133789 6.13037109 C59.46303152 12.98051471 58.22337762 18.89324593 56.49633789 25.50537109 C56.22345947 26.5646582 55.95058105 27.62394531 55.66943359 28.71533203 C50.30294389 49.16880385 42.85416979 68.25794145 32.30883789 86.63037109 C31.62494995 87.82327759 31.62494995 87.82327759 30.92724609 89.0402832 C28.66465947 92.87488617 26.50720193 96.16280727 23.12133789 99.13037109 C22.86739258 98.53869141 22.61344727 97.94701172 22.35180664 97.33740234 C20.21363663 92.39908993 20.21363663 92.39908993 17.62133789 87.69287109 C16.24629058 85.34383194 15.29220981 83.14084738 14.30883789 80.61083984 C5.19120935 57.57388085 -6.74217094 36.13171296 -19.42260742 14.89648438 C-19.98947266 13.93983887 -20.55633789 12.98319336 -21.14038086 11.99755859 C-21.64529053 11.15306152 -22.1502002 10.30856445 -22.67041016 9.43847656 C-23.78612325 7.30714669 -24.42286444 5.48075758 -24.87866211 3.13037109 C-17.93090272 -1.5014685 -8.08128986 -0.02355797 0 0 Z "
                  fill="#F36E21" transform="translate(552.878662109375,249.86962890625)"/>
            <path d="M0 0 C0.7115625 -0.04898437 1.423125 -0.09796875 2.15625 -0.1484375 C8.00160321 1.15702472 11.89376299 6.83936218 15.3125 11.375 C15.73845459 11.93823975 16.16440918 12.50147949 16.60327148 13.08178711 C20.30373862 18.01551491 23.7961528 23.08272646 27.2734375 28.17578125 C30.20781671 32.39202086 33.31154419 36.46935304 36.4140625 40.5625 C39.26192511 44.40231475 41.9123229 48.35648967 44.5 52.375 C40.96788409 53.13013372 37.47799591 53.64477463 33.88671875 54.0234375 C32.81019043 54.14033936 31.73366211 54.25724121 30.62451172 54.37768555 C28.92319092 54.5619812 28.92319092 54.5619812 27.1875 54.75 C17.17987461 55.86250019 7.3494652 57.27715318 -2.5 59.375 C-1.71269977 63.23007179 -0.91937665 67.08388069 -0.125 70.9375 C0.09671875 72.02353516 0.3184375 73.10957031 0.546875 74.22851562 C1.90829232 80.87357786 1.90829232 80.87357786 3.7265625 87.40234375 C4.47898984 90.29424883 4.59418411 91.63953972 3.5 94.375 C-4.88021803 84.9708325 -12.72404584 75.21069441 -20.21972656 65.08935547 C-21.64112275 63.18602899 -23.08102757 61.29760352 -24.5234375 59.41015625 C-40.58174121 38.35891372 -40.58174121 38.35891372 -39.9375 29.7421875 C-38.14013833 20.01717702 -30.64831372 12.99595581 -22.80078125 7.4765625 C-15.38896514 2.93419388 -8.71029675 0.52612531 0 0 Z "
                  fill="#F15923" transform="translate(338.5,280.625)"/>
            <path d="M0 0 C7.28331743 17.04606207 15.51183081 37.17600016 15 56 C7.55646993 58.22517028 0.27247921 59.708751 -7.4375 60.625 C-8.4495752 60.74979736 -9.46165039 60.87459473 -10.50439453 61.00317383 C-13.33508095 61.34680557 -16.16689804 61.6769694 -19 62 C-20.76150391 62.20302734 -20.76150391 62.20302734 -22.55859375 62.41015625 C-38.78711093 64.00824879 -54.83293227 62.61177714 -71 61 C-69.1742416 56.97376422 -66.57006555 54.68121318 -63.1875 51.9375 C-62.00632935 50.95985414 -60.82534499 49.98198316 -59.64453125 49.00390625 C-59.03947754 48.50648926 -58.43442383 48.00907227 -57.81103516 47.49658203 C-55.52206372 45.60504861 -53.26005184 43.6831109 -50.99926758 41.75805664 C-46.53695585 37.95841799 -42.04441706 34.20139476 -37.5 30.5 C-27.67589242 22.49729631 -17.94635843 14.33939507 -8.5859375 5.796875 C-7.77382813 5.05953125 -6.96171875 4.3221875 -6.125 3.5625 C-5.38507813 2.88316406 -4.64515625 2.20382812 -3.8828125 1.50390625 C-2 0 -2 0 0 0 Z "
                  fill="#F36E21" transform="translate(597,469)"/>
            <path d="M0 0 C4.01299755 1.33766585 5.64841754 4.00214268 8.125 7.25 C8.61218506 7.88188232 9.09937012 8.51376465 9.60131836 9.16479492 C20.69019814 23.66229756 31.04405102 39.04945064 38 56 C30.30312762 62.02136275 30.30312762 62.02136275 25.1875 61.9375 C24.135625 61.628125 23.08375 61.31875 22 61 C17.01711353 59.5490817 12.02688113 59.81576068 6.875 59.8125 C5.87984375 59.80025391 4.8846875 59.78800781 3.859375 59.77539062 C-11.77392941 59.7447771 -25.87979234 64.18951222 -38.57421875 73.328125 C-41 75 -41 75 -44 76 C-43.41709536 70.36221919 -41.34489925 65.77251722 -39 60.6875 C-38.59700684 59.80739258 -38.19401367 58.92728516 -37.77880859 58.02050781 C-28.31660402 37.5797905 -16.65128882 15.61058327 0 0 Z "
                  fill="#F36F22" transform="translate(390,158)"/>
            <path d="M0 0 C8.40525953 6.66763376 13.08078215 14.69552097 18 24 C18.98811258 25.67374171 19.98359315 27.34328792 21 29 C20.36835938 29.43828125 19.73671875 29.8765625 19.0859375 30.328125 C5.10904564 40.23681491 -7.05570854 51.75459195 -19 64 C-22.56267946 59.67511268 -25.782926 55.14523784 -29 50.5625 C-29.52078125 49.82451172 -30.0415625 49.08652344 -30.578125 48.32617188 C-33.44439357 44.25476766 -36.25411533 40.15403065 -39 36 C-39.56203125 35.18917969 -40.1240625 34.37835938 -40.703125 33.54296875 C-43.80323386 28.82234844 -46.01872821 24.91846264 -45.58203125 19.16015625 C-43.70409365 12.19036099 -37.52453163 7.22834312 -32 3 C-31.030625 2.2575 -30.06125 1.515 -29.0625 0.75 C-20.58433027 -4.09466842 -8.56331901 -5.30341916 0 0 Z "
                  fill="#F36E22" transform="translate(408,262)"/>
            <path d="M0 0 C1.47265625 1.9140625 1.47265625 1.9140625 3.0625 4.625 C6.37505553 10.07972205 9.96513123 15.24337141 13.71118164 20.40283203 C19.15595888 27.92277247 18.41882348 33.88474341 16.98828125 42.82421875 C16.80434814 43.98397217 16.62041504 45.14372559 16.4309082 46.33862305 C16.2887085 47.21687744 16.14650879 48.09513184 16 49 C15.20118408 48.85377197 14.40236816 48.70754395 13.5793457 48.55688477 C9.82610874 47.87817374 6.0703048 47.21534486 2.3125 46.5625 C1.29532394 46.38485107 1.29532394 46.38485107 0.25759888 46.20361328 C-9.36081941 44.54324786 -18.82684147 43.38299433 -28.61401367 43.54125977 C-32.86902002 43.52320208 -34.49279409 43.38619068 -37.99609375 40.71875 C-40.7976326 36.91783179 -40.7976326 36.91783179 -41 34 C-39.54394531 31.94458008 -39.54394531 31.94458008 -37.328125 29.76953125 C-36.5235083 28.9705542 -35.7188916 28.17157715 -34.88989258 27.34838867 C-34.01872803 26.51154541 -33.14756348 25.67470215 -32.25 24.8125 C-31.37561279 23.95696533 -30.50122559 23.10143066 -29.6003418 22.2199707 C-23.65318395 16.45241206 -17.6193483 10.98979736 -11 6 C-10.23042969 5.38640625 -9.46085937 4.7728125 -8.66796875 4.140625 C-3.39721904 0 -3.39721904 0 0 0 Z "
                  fill="#F15822" transform="translate(430,291)"/>
            <path d="M0 0 C0.474375 0.66 0.94875 1.32 1.4375 2 C-2.64628283 1.25749403 -6.58189223 0.17076699 -10.5625 -1 C-11.39118329 7.37272147 -11.72164118 15.650968 -11.6875 24.0625 C-11.68556641 25.2275708 -11.68363281 26.3926416 -11.68164062 27.59301758 C-11.63306312 37.41849343 -11.2310436 47.19867334 -10.5625 57 C-14.87520888 58.66751985 -19.02140472 60.26509002 -23.5625 61.1875 C-24.325625 61.34605469 -25.08875 61.50460937 -25.875 61.66796875 C-26.431875 61.77753906 -26.98875 61.88710938 -27.5625 62 C-33.55179863 54.97853199 -38.80394444 47.91448878 -43.5625 40 C-44.38814453 38.75283203 -44.38814453 38.75283203 -45.23046875 37.48046875 C-47.6982677 32.88500737 -47.33035446 27.89170721 -46.01171875 22.92578125 C-41.39267839 12.13342628 -30.42683578 4.35201197 -19.94140625 -0.1171875 C-13.96379832 -2.33547879 -5.29197423 -4.13032135 0 0 Z "
                  fill="#F36E22" transform="translate(345.5625,283)"/>
            <path d="M0 0 C0.33 0 0.66 0 1 0 C1.02578125 0.680625 1.0515625 1.36125 1.078125 2.0625 C2.35462946 23.8791216 10.63195116 42.45927646 26 58 C28.53566115 60.22226483 31.0986533 62.31185393 33.80859375 64.31640625 C36.07321805 66.0562513 38.00008167 67.96601151 40 70 C19.70298846 70.61420193 0.67205621 69.13184075 -19 64 C-16.85748429 41.95859029 -10.14467332 19.67451795 0 0 Z "
                  fill="#F36F22" transform="translate(188,461)"/>
            <path d="M0 0 C6.16900163 0.6041073 11.8156981 1.92530045 17.75 3.6875 C18.65524414 3.95079102 19.56048828 4.21408203 20.49316406 4.48535156 C25.16998406 5.85097652 29.83665462 7.24927683 34.5 8.66015625 C35.82306152 9.06004761 35.82306152 9.06004761 37.17285156 9.46801758 C38.83744114 9.97310288 40.50094075 10.48180091 42.16308594 10.99487305 C47.39564993 12.59138842 52.64338705 13.88921098 58 15 C58 26.09025231 41.17090119 42.14050234 34 50 C20.14245317 36.38345398 8.7633756 19.32055412 0 2 C0 1.34 0 0.68 0 0 Z "
                  fill="#F36E22" transform="translate(357,574)"/>
            <path d="M0 0 C5.46313416 4.59643373 5.46313416 4.59643373 6.69140625 8.28125 C5.98121338 8.58828857 5.27102051 8.89532715 4.53930664 9.21166992 C1.27542865 10.62595508 -1.98533087 12.04729824 -5.24609375 13.46875 C-6.36306641 13.95150391 -7.48003906 14.43425781 -8.63085938 14.93164062 C-14.47296559 17.48434979 -20.11673562 20.13860138 -25.60375977 23.3918457 C-27.30859375 24.28125 -27.30859375 24.28125 -29.30859375 24.28125 C-30.62859375 17.02125 -31.94859375 9.76125 -33.30859375 2.28125 C-35.61859375 4.26125 -37.92859375 6.24125 -40.30859375 8.28125 C-37.09660802 1.85727853 -31.93892507 -1.98013489 -25.30859375 -4.71875 C-16.03118294 -7.47689916 -7.68289088 -5.71991876 0 0 Z "
                  fill="#F68B22" transform="translate(475.30859375,254.71875)"/>
            <path d="M0 0 C0.52319824 0.25168945 1.04639648 0.50337891 1.58544922 0.76269531 C15.1017828 7.3189877 15.1017828 7.3189877 29 13 C25.22355267 17.02821048 21.07920925 20.40337037 16.75 23.82421875 C9.90258902 29.24184363 3.14002834 34.72895844 -3.24609375 40.6875 C-5.16341416 42.12228766 -6.659723 42.58852273 -9 43 C-8.75765625 41.98164062 -8.5153125 40.96328125 -8.265625 39.9140625 C-6.41143927 32.09699463 -4.58394597 24.27375678 -2.8125 16.4375 C-2.64588867 15.71320801 -2.47927734 14.98891602 -2.30761719 14.24267578 C-1.24645398 9.50884196 -0.53700138 4.8221639 0 0 Z "
                  fill="#F58A20" transform="translate(446,502)"/>
            <path d="M0 0 C0.33 0 0.66 0 1 0 C1.50604924 2.39469729 2.00499517 4.79051717 2.5 7.1875 C2.64308594 7.86103516 2.78617187 8.53457031 2.93359375 9.22851562 C3.68069842 12.87509793 4.17352282 16.27648957 4 20 C1.69 19.67 -0.62 19.34 -3 19 C-3 18.34 -3 17.68 -3 17 C-3.82757813 16.87753906 -4.65515625 16.75507812 -5.5078125 16.62890625 C-9.3596021 15.93523944 -13.10444874 14.97147869 -16.875 13.9375 C-17.56335938 13.75123047 -18.25171875 13.56496094 -18.9609375 13.37304688 C-20.64132514 12.91794189 -22.32076322 12.45933322 -24 12 C-21.18278468 10.57838118 -18.34563939 9.21007795 -15.48828125 7.87109375 C-14.64845703 7.47599609 -13.80863281 7.08089844 -12.94335938 6.67382812 C-11.17835007 5.84439168 -9.41271642 5.01628263 -7.64648438 4.18945312 C-6.81052734 3.79564453 -5.97457031 3.40183594 -5.11328125 2.99609375 C-3.96533081 2.45746704 -3.96533081 2.45746704 -2.79418945 1.90795898 C-1.02667392 1.13055379 -1.02667392 1.13055379 0 0 Z "
                  fill="#F58A22" transform="translate(334,502)"/>
            <path d="M0 0 C1.24911667 7.65083958 1.09053426 15.27440986 1 23 C-2.08426156 20.32506945 -3.79802495 17.11557856 -5.75 13.5625 C-6.70132812 11.86287109 -6.70132812 11.86287109 -7.671875 10.12890625 C-9 7 -9 7 -8.8515625 4.69921875 C-7.03884928 1.08210751 -3.83559289 0 0 0 Z "
                  fill="#F15C26" transform="translate(447,280)"/>
            <path d="M0 0 C1.1034375 0.01289063 2.206875 0.02578125 3.34375 0.0390625 C6.42685657 0.36721493 8.70458953 1.07117049 11.5 2.375 C11.5 2.705 11.5 3.035 11.5 3.375 C3.91 3.705 -3.68 4.035 -11.5 4.375 C-5.84352009 -0.15018393 -5.84352009 -0.15018393 0 0 Z "
                  fill="#F68F29" transform="translate(206.5,246.625)"/>
            <path d="M0 0 C2.53910197 0.38520564 3.72751123 0.70097943 5.484375 2.62890625 C5.90203125 3.26699219 6.3196875 3.90507812 6.75 4.5625 C7.17796875 5.20316406 7.6059375 5.84382813 8.046875 6.50390625 C8.36140625 6.99761719 8.6759375 7.49132812 9 8 C7.68 8.33 6.36 8.66 5 9 C0.57142857 3.85714286 0.57142857 3.85714286 0 0 Z "
                  fill="#EF512C" transform="translate(389,325)"/>
            <path d="M0 0 C3 1 3 1 4.25 3.375 C5 6 5 6 4 9 C2.02 6.69 0.04 4.38 -2 2 C-1.34 1.34 -0.68 0.68 0 0 Z "
                  fill="#F69434" transform="translate(543,388)"/>
            <path d="M0 0 C8.19256018 -0.63019694 8.19256018 -0.63019694 11.5625 2 C12.036875 2.66 12.51125 3.32 13 4 C8.125 3.125 8.125 3.125 7 2 C4.67182036 1.63239269 2.3381615 1.29758419 0 1 C0 0.67 0 0.34 0 0 Z "
                  fill="#F37839" transform="translate(334,281)"/>
        </svg>
    </g>
</svg>
